<?xml version="1.0" encoding="utf-8" standalone="no"?>
<!DOCTYPE svg PUBLIC "-//W3C//DTD SVG 1.1//EN"
  "http://www.w3.org/Graphics/SVG/1.1/DTD/svg11.dtd">
<svg xmlns:xlink="http://www.w3.org/1999/xlink" width="576pt" height="360pt" viewBox="0 0 576 360" xmlns="http://www.w3.org/2000/svg" version="1.1">
 <metadata>
  <rdf:RDF xmlns:dc="http://purl.org/dc/elements/1.1/" xmlns:cc="http://creativecommons.org/ns#" xmlns:rdf="http://www.w3.org/1999/02/22-rdf-syntax-ns#">
   <cc:Work>
    <dc:type rdf:resource="http://purl.org/dc/dcmitype/StillImage"/>
    <dc:date>2024-07-08T15:21:29.048669</dc:date>
    <dc:format>image/svg+xml</dc:format>
    <dc:creator>
     <cc:Agent>
      <dc:title>Matplotlib v3.8.0, https://matplotlib.org/</dc:title>
     </cc:Agent>
    </dc:creator>
   </cc:Work>
  </rdf:RDF>
 </metadata>
 <defs>
  <style type="text/css">*{stroke-linejoin: round; stroke-linecap: butt}</style>
 </defs>
 <g id="figure_1">
  <g id="patch_1">
   <path d="M 0 360 
L 576 360 
L 576 0 
L 0 0 
z
" style="fill: #ffffff"/>
  </g>
  <g id="axes_1">
   <g id="patch_2">
    <path d="M 79.59 118.657991 
L 556.56 118.657991 
L 556.56 19.44 
L 79.59 19.44 
z
" style="fill: #ffffff"/>
   </g>
   <g id="matplotlib.axis_1">
    <g id="xtick_1">
     <g id="line2d_1">
      <defs>
       <path id="m4dc1e40f14" d="M 0 0 
L 0 9 
" style="stroke: #262626; stroke-width: 1.875"/>
      </defs>
      <g>
       <use xlink:href="#m4dc1e40f14" x="100.691537" y="118.657991" style="fill: #262626; stroke: #262626; stroke-width: 1.875"/>
      </g>
     </g>
     <g id="text_1">
      <text style="fill: #262626; font: 16.5px 'Arial', 'DejaVu Sans', 'Liberation Sans', 'Bitstream Vera Sans', sans-serif; text-anchor: middle" x="100.691537" y="143.695413" transform="rotate(-0 100.691537 143.695413)">0</text>
     </g>
    </g>
    <g id="xtick_2">
     <g id="line2d_2">
      <g>
       <use xlink:href="#m4dc1e40f14" x="158.583272" y="118.657991" style="fill: #262626; stroke: #262626; stroke-width: 1.875"/>
      </g>
     </g>
     <g id="text_2">
      <text style="fill: #262626; font: 16.5px 'Arial', 'DejaVu Sans', 'Liberation Sans', 'Bitstream Vera Sans', sans-serif; text-anchor: middle" x="158.583272" y="143.695413" transform="rotate(-0 158.583272 143.695413)">2</text>
     </g>
    </g>
    <g id="xtick_3">
     <g id="line2d_3">
      <g>
       <use xlink:href="#m4dc1e40f14" x="216.475006" y="118.657991" style="fill: #262626; stroke: #262626; stroke-width: 1.875"/>
      </g>
     </g>
     <g id="text_3">
      <text style="fill: #262626; font: 16.5px 'Arial', 'DejaVu Sans', 'Liberation Sans', 'Bitstream Vera Sans', sans-serif; text-anchor: middle" x="216.475006" y="143.695413" transform="rotate(-0 216.475006 143.695413)">4</text>
     </g>
    </g>
    <g id="xtick_4">
     <g id="line2d_4">
      <g>
       <use xlink:href="#m4dc1e40f14" x="274.366741" y="118.657991" style="fill: #262626; stroke: #262626; stroke-width: 1.875"/>
      </g>
     </g>
     <g id="text_4">
      <text style="fill: #262626; font: 16.5px 'Arial', 'DejaVu Sans', 'Liberation Sans', 'Bitstream Vera Sans', sans-serif; text-anchor: middle" x="274.366741" y="143.695413" transform="rotate(-0 274.366741 143.695413)">6</text>
     </g>
    </g>
    <g id="xtick_5">
     <g id="line2d_5">
      <g>
       <use xlink:href="#m4dc1e40f14" x="332.258475" y="118.657991" style="fill: #262626; stroke: #262626; stroke-width: 1.875"/>
      </g>
     </g>
     <g id="text_5">
      <text style="fill: #262626; font: 16.5px 'Arial', 'DejaVu Sans', 'Liberation Sans', 'Bitstream Vera Sans', sans-serif; text-anchor: middle" x="332.258475" y="143.695413" transform="rotate(-0 332.258475 143.695413)">8</text>
     </g>
    </g>
    <g id="xtick_6">
     <g id="line2d_6">
      <g>
       <use xlink:href="#m4dc1e40f14" x="390.150209" y="118.657991" style="fill: #262626; stroke: #262626; stroke-width: 1.875"/>
      </g>
     </g>
     <g id="text_6">
      <text style="fill: #262626; font: 16.5px 'Arial', 'DejaVu Sans', 'Liberation Sans', 'Bitstream Vera Sans', sans-serif; text-anchor: middle" x="390.150209" y="143.695413" transform="rotate(-0 390.150209 143.695413)">10</text>
     </g>
    </g>
    <g id="xtick_7">
     <g id="line2d_7">
      <g>
       <use xlink:href="#m4dc1e40f14" x="448.041944" y="118.657991" style="fill: #262626; stroke: #262626; stroke-width: 1.875"/>
      </g>
     </g>
     <g id="text_7">
      <text style="fill: #262626; font: 16.5px 'Arial', 'DejaVu Sans', 'Liberation Sans', 'Bitstream Vera Sans', sans-serif; text-anchor: middle" x="448.041944" y="143.695413" transform="rotate(-0 448.041944 143.695413)">12</text>
     </g>
    </g>
    <g id="xtick_8">
     <g id="line2d_8">
      <g>
       <use xlink:href="#m4dc1e40f14" x="505.933678" y="118.657991" style="fill: #262626; stroke: #262626; stroke-width: 1.875"/>
      </g>
     </g>
     <g id="text_8">
      <text style="fill: #262626; font: 16.5px 'Arial', 'DejaVu Sans', 'Liberation Sans', 'Bitstream Vera Sans', sans-serif; text-anchor: middle" x="505.933678" y="143.695413" transform="rotate(-0 505.933678 143.695413)">14</text>
     </g>
    </g>
    <g id="text_9">
     <text style="fill: #262626; font: 18px 'Arial', 'DejaVu Sans', 'Liberation Sans', 'Bitstream Vera Sans', sans-serif; text-anchor: middle" x="318.075" y="164.804085" transform="rotate(-0 318.075 164.804085)">time (s)</text>
    </g>
   </g>
   <g id="matplotlib.axis_2">
    <g id="ytick_1">
     <g id="line2d_9">
      <defs>
       <path id="m77ac4ea105" d="M 0 0 
L -9 0 
" style="stroke: #262626; stroke-width: 1.875"/>
      </defs>
      <g>
       <use xlink:href="#m77ac4ea105" x="79.59" y="95.168222" style="fill: #262626; stroke: #262626; stroke-width: 1.875"/>
      </g>
     </g>
     <g id="text_10">
      <text style="fill: #262626; font: 16.5px 'Arial', 'DejaVu Sans', 'Liberation Sans', 'Bitstream Vera Sans', sans-serif; text-anchor: end" x="67.09" y="101.436933" transform="rotate(-0 67.09 101.436933)">1</text>
     </g>
    </g>
    <g id="ytick_2">
     <g id="line2d_10">
      <g>
       <use xlink:href="#m77ac4ea105" x="79.59" y="55.186004" style="fill: #262626; stroke: #262626; stroke-width: 1.875"/>
      </g>
     </g>
     <g id="text_11">
      <text style="fill: #262626; font: 16.5px 'Arial', 'DejaVu Sans', 'Liberation Sans', 'Bitstream Vera Sans', sans-serif; text-anchor: end" x="67.09" y="61.454715" transform="rotate(-0 67.09 61.454715)">2</text>
     </g>
    </g>
    <g id="text_12">
     <text style="fill: #262626; font: 18px 'Arial', 'DejaVu Sans', 'Liberation Sans', 'Bitstream Vera Sans', sans-serif; text-anchor: middle" x="48.848438" y="69.048996" transform="rotate(-90 48.848438 69.048996)">Exponent</text>
    </g>
   </g>
   <g id="line2d_11">
    <path d="M 101.270455 79.506639 
L 103.586124 91.172875 
L 104.165041 94.512199 
L 105.322876 99.603226 
L 105.901793 103.489934 
L 107.059628 114.148083 
L 107.638545 112.156545 
L 108.217463 108.152616 
L 108.79638 105.003 
L 109.375297 103.645211 
L 109.954215 102.664588 
L 110.533132 102.03997 
L 111.690967 99.314059 
L 112.269884 97.408261 
L 112.848801 99.070754 
L 113.427719 103.966107 
L 114.006636 110.675509 
L 114.585553 107.268691 
L 115.164471 106.56021 
L 115.743388 107.008511 
L 116.322305 102.4259 
L 116.901223 92.269797 
L 117.48014 88.203941 
L 118.059058 94.142828 
L 118.637975 89.829324 
L 119.216892 87.583183 
L 119.79581 95.591503 
L 120.374727 97.564949 
L 120.953644 95.275791 
L 121.532562 92.487554 
L 122.111479 93.065986 
L 122.690396 94.950173 
L 123.269314 95.041732 
L 124.427148 88.534524 
L 125.006066 84.507646 
L 125.584983 82.215388 
L 126.1639 83.405331 
L 126.742818 87.571438 
L 127.321735 88.557176 
L 127.900652 89.095067 
L 128.47957 89.344664 
L 129.058487 87.753959 
L 129.637404 84.671515 
L 130.216322 83.872539 
L 130.795239 85.762504 
L 131.374156 91.194521 
L 131.953074 95.264176 
L 132.531991 95.699551 
L 133.110908 95.825134 
L 133.689826 96.883424 
L 134.268743 97.4699 
L 135.426578 94.833078 
L 136.005495 95.034488 
L 136.584413 94.989185 
L 137.16333 96.071569 
L 137.742247 98.430126 
L 138.321165 102.471586 
L 138.900082 105.48031 
L 139.478999 104.299908 
L 140.057917 101.272267 
L 140.636834 101.820503 
L 141.215751 99.942757 
L 142.373586 86.136125 
L 142.952503 81.67217 
L 143.531421 80.043586 
L 144.110338 79.848754 
L 144.689255 78.894099 
L 145.268173 78.817472 
L 145.84709 83.10795 
L 146.426007 88.434457 
L 147.004925 92.221171 
L 147.583842 95.245848 
L 148.162759 91.823078 
L 148.741677 86.669448 
L 149.320594 85.880073 
L 149.899511 85.491906 
L 150.478429 83.665216 
L 151.057346 83.28374 
L 151.636264 82.590714 
L 152.215181 81.000894 
L 152.794098 78.718757 
L 154.53085 75.212228 
L 155.109768 76.305239 
L 155.688685 75.089861 
L 156.267602 72.844179 
L 156.84652 73.676532 
L 157.425437 78.215897 
L 158.004354 80.865262 
L 158.583272 82.250229 
L 159.162189 84.937552 
L 159.741106 89.961527 
L 160.320024 89.297949 
L 160.898941 93.304173 
L 161.477858 104.497165 
L 162.056776 102.983766 
L 162.635693 110.664044 
L 163.21461 104.560781 
L 164.951362 94.48974 
L 165.53028 89.257542 
L 166.109197 86.720428 
L 166.688114 86.713712 
L 167.267032 87.760277 
L 167.845949 87.11821 
L 169.003784 91.288623 
L 169.582701 92.58924 
L 170.161619 95.836772 
L 170.740536 96.668897 
L 171.319453 96.825005 
L 171.898371 90.638856 
L 172.477288 88.429631 
L 173.056205 87.428881 
L 173.635123 87.237862 
L 174.21404 86.641525 
L 174.792957 88.832665 
L 175.371875 88.881746 
L 175.950792 91.453542 
L 176.529709 92.90149 
L 177.108627 95.437646 
L 177.687544 96.792642 
L 179.424296 112.080952 
L 180.003213 109.976487 
L 181.161048 103.082713 
L 181.739965 101.34034 
L 182.318883 100.070504 
L 182.8978 100.619128 
L 183.476717 98.486628 
L 184.055635 98.97536 
L 184.634552 96.300422 
L 185.792387 101.523268 
L 186.371304 112.840767 
L 186.950222 109.855278 
L 187.529139 104.672429 
L 188.108056 101.129489 
L 188.686974 101.575929 
L 189.265891 96.051934 
L 189.844808 86.699448 
L 190.423726 94.314387 
L 191.002643 93.379474 
L 191.58156 85.525264 
L 192.160478 93.365247 
L 193.318312 99.363629 
L 193.89723 93.350134 
L 194.476147 93.115169 
L 195.055064 94.91666 
L 195.633982 94.874615 
L 196.212899 92.545966 
L 197.370734 86.200277 
L 197.949651 82.498496 
L 198.528568 84.241589 
L 199.107486 87.0338 
L 199.686403 87.801416 
L 200.26532 87.655196 
L 200.844238 86.175989 
L 201.423155 84.038352 
L 202.002072 78.823672 
L 202.58099 77.574912 
L 203.159907 78.5896 
L 203.738824 83.281726 
L 204.317742 86.865076 
L 205.475577 90.661177 
L 206.054494 94.078875 
L 206.633411 95.352745 
L 207.212329 93.368976 
L 207.791246 92.776782 
L 208.370163 91.994702 
L 208.949081 91.740273 
L 209.527998 92.7384 
L 210.106915 94.84787 
L 210.685833 99.007299 
L 211.26475 101.352873 
L 211.843667 98.846488 
L 212.422585 97.360238 
L 213.001502 96.294433 
L 213.580419 95.807869 
L 214.159337 89.604729 
L 215.317171 82.274966 
L 215.896089 82.496509 
L 216.475006 82.925388 
L 217.053923 81.470864 
L 217.632841 81.464919 
L 218.211758 84.037277 
L 218.790675 89.551585 
L 219.94851 96.716338 
L 220.527427 93.446273 
L 221.106345 86.039487 
L 221.685262 85.824281 
L 222.26418 85.820229 
L 222.843097 83.92385 
L 223.422014 83.526711 
L 224.000932 82.862563 
L 224.579849 81.587798 
L 225.737684 77.854253 
L 226.316601 77.294736 
L 226.895518 74.968106 
L 227.474436 76.070871 
L 228.053353 75.093789 
L 228.63227 72.159767 
L 229.211188 72.92538 
L 230.369022 78.439292 
L 230.94794 78.315077 
L 232.105774 85.548056 
L 232.684692 82.234951 
L 233.263609 88.231481 
L 233.842526 98.899219 
L 234.421444 94.743779 
L 235.000361 101.895484 
L 235.579278 101.081075 
L 236.158196 97.711637 
L 236.737113 97.328638 
L 237.31603 93.048127 
L 237.894948 87.055396 
L 238.473865 84.899013 
L 239.052782 84.558 
L 239.6317 85.669442 
L 240.210617 85.64227 
L 241.368452 89.287248 
L 241.947369 88.879946 
L 242.526287 93.1915 
L 243.105204 93.560886 
L 243.684121 97.145079 
L 244.841956 88.173054 
L 245.420873 85.168077 
L 245.999791 83.03561 
L 246.578708 81.794481 
L 247.157625 83.749502 
L 247.736543 83.890711 
L 248.31546 87.847338 
L 248.894377 89.775076 
L 249.473295 94.178986 
L 250.052212 95.562418 
L 251.210047 105.386869 
L 251.788964 110.889679 
L 252.367881 110.722416 
L 252.946799 106.626255 
L 253.525716 103.493531 
L 254.683551 99.975194 
L 255.262468 99.437029 
L 255.841385 95.471893 
L 256.420303 94.854564 
L 256.99922 94.870563 
L 257.578138 98.316179 
L 258.157055 99.327105 
L 258.735972 103.366286 
L 259.31489 102.054423 
L 259.893807 97.180213 
L 260.472724 96.099613 
L 261.051642 93.152452 
L 261.630559 94.541628 
L 262.209476 91.377231 
L 262.788394 94.223367 
L 263.367311 95.039774 
L 263.946228 93.612886 
L 264.525146 96.701523 
L 265.104063 101.806174 
L 265.68298 105.379673 
L 266.261898 104.106095 
L 266.840815 104.201174 
L 267.419732 104.955822 
L 267.99865 105.280426 
L 268.577567 102.64188 
L 269.735402 96.394144 
L 270.314319 93.614864 
L 271.472154 96.85879 
L 272.051071 99.334996 
L 272.629988 101.09136 
L 273.208906 100.711096 
L 273.787823 100.842516 
L 274.366741 95.604081 
L 275.524575 87.973737 
L 276.103493 87.618327 
L 276.68241 88.392345 
L 277.261327 90.358935 
L 277.840245 91.898087 
L 278.998079 95.848094 
L 279.576997 95.257415 
L 280.155914 94.006188 
L 280.734831 92.175091 
L 281.313749 91.586955 
L 281.892666 92.347311 
L 282.471583 94.474511 
L 283.629418 100.976977 
L 284.208335 100.607877 
L 284.787253 100.575383 
L 285.36617 99.098612 
L 285.945087 101.175625 
L 286.524005 98.300778 
L 287.102922 97.154125 
L 287.681839 96.566492 
L 288.260757 97.747749 
L 288.839674 98.178785 
L 289.418591 98.251074 
L 289.997509 97.803236 
L 290.576426 97.914686 
L 291.734261 102.548823 
L 292.313178 107.099496 
L 292.892096 109.322307 
L 293.471013 104.612122 
L 294.04993 101.631308 
L 294.628848 99.635838 
L 295.207765 97.012203 
L 296.3656 93.427168 
L 296.944517 90.496504 
L 297.523434 88.260932 
L 298.102352 86.889493 
L 298.681269 87.586768 
L 300.418021 84.066846 
L 300.996938 82.309785 
L 301.575856 82.488346 
L 302.154773 82.798835 
L 302.73369 84.530016 
L 303.312608 87.530899 
L 303.891525 89.53514 
L 304.470442 88.287775 
L 305.04936 87.648316 
L 306.207194 96.140636 
L 306.786112 96.749206 
L 307.365029 98.406076 
L 307.943946 102.557279 
L 308.522864 103.913954 
L 309.101781 101.323144 
L 310.259616 87.201823 
L 310.838533 84.884586 
L 311.417451 84.457045 
L 311.996368 85.396284 
L 312.575285 85.347489 
L 313.154203 87.289484 
L 313.73312 87.414236 
L 314.312037 85.494547 
L 314.890955 85.725369 
L 315.469872 85.148278 
L 316.048789 84.977896 
L 316.627707 84.955156 
L 318.364459 90.085241 
L 318.943376 91.047028 
L 319.522293 88.217847 
L 320.101211 89.730477 
L 320.680128 92.571397 
L 321.259045 89.149577 
L 322.41688 56.479455 
L 322.995797 49.984263 
L 323.574715 45.600777 
L 324.153632 42.71214 
L 324.732549 41.258362 
L 325.311467 41.007493 
L 326.469301 41.122577 
L 327.048219 41.643452 
L 327.627136 42.973079 
L 328.784971 50.400571 
L 329.363888 51.968867 
L 329.942806 52.667257 
L 330.521723 53.182233 
L 331.10064 49.813365 
L 332.258475 36.983832 
L 332.837392 33.632279 
L 333.41631 32.558094 
L 333.995227 33.044863 
L 334.574144 31.841421 
L 335.153062 31.078694 
L 335.731979 30.584158 
L 336.310896 29.474496 
L 336.889814 27.984085 
L 337.468731 27.161136 
L 338.047648 27.915767 
L 339.205483 33.711792 
L 339.7844 35.815507 
L 340.363318 35.922712 
L 340.942235 36.837241 
L 341.521152 37.452376 
L 342.10007 36.631911 
L 343.257904 31.593911 
L 344.415739 28.56701 
L 344.994657 25.945595 
L 345.573574 23.980054 
L 346.152491 24.435484 
L 347.310326 29.317178 
L 347.889243 31.23098 
L 348.468161 34.266108 
L 349.047078 36.673994 
L 349.625995 37.302739 
L 350.204913 38.614718 
L 350.78383 42.971672 
L 351.941665 57.542552 
L 352.520582 60.50378 
L 353.099499 62.379561 
L 353.678417 66.764397 
L 354.257334 73.609871 
L 354.836251 77.857443 
L 355.415169 84.847878 
L 355.994086 88.120858 
L 356.573003 86.427944 
L 357.151921 87.344116 
L 357.730838 84.650853 
L 358.888673 68.537851 
L 359.46759 62.555147 
L 361.783259 44.939716 
L 362.362177 44.101293 
L 362.941094 42.832839 
L 363.520012 40.145739 
L 364.098929 41.148755 
L 364.677846 44.115625 
L 365.256764 46.367065 
L 365.835681 46.048182 
L 366.414598 45.396578 
L 366.993516 47.193719 
L 367.572433 50.997344 
L 368.15135 51.492642 
L 368.730268 51.69224 
L 369.309185 51.674225 
L 369.888102 53.345147 
L 370.46702 53.692263 
L 371.045937 53.17251 
L 372.203772 44.394068 
L 372.782689 46.10193 
L 373.361606 52.739264 
L 373.940524 51.642579 
L 374.519441 48.167703 
L 375.098358 43.557576 
L 375.677276 39.922681 
L 376.256193 38.751162 
L 376.83511 40.15323 
L 377.414028 42.345811 
L 377.992945 43.228446 
L 379.15078 45.980863 
L 379.729697 46.507354 
L 380.308615 46.862327 
L 380.887532 47.819323 
L 382.045367 52.140885 
L 382.624284 51.073525 
L 383.782119 44.26908 
L 384.361036 42.205467 
L 385.518871 41.076739 
L 386.676705 46.60206 
L 387.255623 46.674246 
L 387.83454 47.056309 
L 388.413457 48.767304 
L 388.992375 51.251545 
L 389.571292 52.9507 
L 390.729127 58.090846 
L 392.465879 71.175455 
L 393.044796 77.869365 
L 393.623713 71.552918 
L 394.781548 52.4129 
L 395.360465 46.282666 
L 395.939383 41.670182 
L 396.5183 39.200657 
L 397.097218 38.162059 
L 397.676135 37.567046 
L 399.412887 38.388622 
L 399.991804 40.376406 
L 401.149639 47.599626 
L 401.728556 47.797473 
L 402.307474 47.382586 
L 402.886391 47.865678 
L 403.465308 45.4555 
L 405.20206 33.10436 
L 405.780978 31.825805 
L 406.359895 31.895329 
L 407.51773 30.759887 
L 408.096647 30.893164 
L 408.675564 30.457421 
L 409.254482 28.410617 
L 409.833399 28.083732 
L 410.412316 27.935348 
L 410.991234 30.327536 
L 411.570151 33.50216 
L 412.149068 35.533522 
L 412.727986 35.851858 
L 413.306903 36.440126 
L 413.88582 37.583641 
L 414.464738 37.66676 
L 416.20149 30.54948 
L 416.780407 27.166953 
L 417.359325 24.642314 
L 417.938242 23.949909 
L 418.517159 24.623154 
L 419.674994 28.677257 
L 420.832829 29.954118 
L 421.411746 29.757291 
L 421.990663 29.687367 
L 422.569581 31.676189 
L 423.148498 36.728536 
L 424.306333 52.18651 
L 424.88525 56.632863 
L 425.464167 58.657941 
L 426.043085 63.512073 
L 426.622002 69.519018 
L 427.200919 73.739648 
L 427.779837 79.392621 
L 428.358754 82.721815 
L 428.937671 83.761728 
L 429.516589 84.50819 
L 430.095506 83.205457 
L 430.674423 73.741851 
L 431.253341 66.237865 
L 431.832258 63.114247 
L 432.411176 63.257077 
L 432.990093 59.983233 
L 434.147928 50.609666 
L 434.726845 47.826396 
L 435.305762 46.915069 
L 435.88468 44.117294 
L 436.463597 43.328121 
L 437.042514 44.552538 
L 437.621432 46.430797 
L 438.200349 45.885781 
L 438.779266 44.916402 
L 439.358184 46.080192 
L 439.937101 49.164286 
L 440.516018 51.6005 
L 441.094936 51.794561 
L 441.673853 51.847172 
L 442.25277 53.279034 
L 442.831688 53.6072 
L 443.410605 53.715591 
L 444.56844 46.167021 
L 445.147357 43.049642 
L 445.726274 43.702514 
L 446.305192 44.163567 
L 446.884109 40.303585 
L 448.041944 29.468025 
L 448.620861 25.842584 
L 449.199778 27.04387 
L 449.778696 30.273986 
L 450.936531 33.516956 
L 452.673283 42.353076 
L 453.2522 44.264539 
L 454.410035 49.732589 
L 454.988952 48.319152 
L 456.146787 40.575311 
L 456.725704 38.772298 
L 457.883539 37.133013 
L 458.462456 38.932124 
L 459.620291 43.529969 
L 460.199208 48.029311 
L 460.778125 51.633792 
L 461.357043 54.170804 
L 461.93596 54.08135 
L 462.514877 55.659188 
L 463.672712 57.804358 
L 464.251629 58.262397 
L 464.830547 61.9915 
L 465.409464 67.709999 
L 465.988381 66.916056 
L 466.567299 61.321712 
L 467.146216 53.280936 
L 467.725134 46.928038 
L 468.304051 41.818126 
L 468.882968 39.364014 
L 470.040803 37.668393 
L 471.198638 38.065692 
L 471.777555 38.716893 
L 472.356472 40.014708 
L 472.93539 42.311444 
L 473.514307 45.42793 
L 474.672142 47.691901 
L 475.251059 47.806695 
L 475.829976 47.203384 
L 476.408894 45.002557 
L 476.987811 43.957628 
L 477.566728 43.886182 
L 478.145646 44.615352 
L 478.724563 46.813058 
L 481.040232 53.592385 
L 481.61915 53.715693 
L 482.198067 52.061132 
L 482.776984 51.146259 
L 483.355902 52.787778 
L 483.934819 55.311771 
L 484.513736 56.178227 
L 485.092654 55.718218 
L 485.671571 56.035077 
L 486.250489 57.435225 
L 486.829406 58.524377 
L 487.408323 59.345252 
L 487.987241 59.581462 
L 488.566158 58.238245 
L 489.145075 58.414019 
L 489.723993 56.961415 
L 490.881827 49.064873 
L 491.460745 46.34985 
L 492.618579 43.688687 
L 494.355331 38.48012 
L 494.934249 38.424991 
L 495.513166 40.691993 
L 496.092083 44.346142 
L 497.249918 54.634769 
L 497.828835 57.98388 
L 498.407753 62.743756 
L 498.98667 68.909547 
L 499.565587 73.152118 
L 500.144505 79.073775 
L 500.723422 82.426529 
L 501.302339 82.11964 
L 501.881257 78.555221 
L 504.196926 59.199409 
L 504.775844 56.471448 
L 505.354761 54.985792 
L 506.512596 56.267828 
L 507.091513 57.068695 
L 507.67043 58.369682 
L 508.249348 58.962465 
L 508.828265 61.618981 
L 509.407182 65.048257 
L 509.9861 71.323039 
L 510.565017 73.788209 
L 511.143934 75.226348 
L 511.722852 73.605364 
L 512.880686 74.6651 
L 513.459604 74.350957 
L 514.038521 73.011048 
L 514.617438 73.885083 
L 515.196356 75.15853 
L 516.35419 78.044118 
L 516.933108 79.211046 
L 518.090942 75.843243 
L 518.66986 75.527123 
L 519.248777 72.587557 
L 519.827695 66.514123 
L 520.406612 59.060651 
L 520.985529 53.819965 
L 522.143364 47.733592 
L 522.722281 45.246411 
L 523.880116 42.318255 
L 524.459033 42.536668 
L 525.616868 46.151691 
L 526.774703 49.306412 
L 527.35362 48.290863 
L 528.511455 41.006344 
L 529.090372 38.964768 
L 529.669289 38.35069 
L 530.248207 38.265386 
L 530.827124 40.099986 
L 531.406041 42.960678 
L 531.984959 43.787656 
L 532.563876 45.234915 
L 533.142793 47.441305 
L 533.721711 50.179549 
L 534.300628 51.687427 
L 534.879545 54.695891 
L 534.879545 54.695891 
" clip-path="url(#pd0e549da29)" style="fill: none; stroke: #1f77b4; stroke-width: 2.25; stroke-linecap: round"/>
   </g>
   <g id="patch_3">
    <path d="M 79.59 118.657991 
L 79.59 19.44 
" style="fill: none; stroke: #262626; stroke-width: 1.875; stroke-linejoin: miter; stroke-linecap: square"/>
   </g>
   <g id="patch_4">
    <path d="M 556.56 118.657991 
L 556.56 19.44 
" style="fill: none; stroke: #262626; stroke-width: 1.875; stroke-linejoin: miter; stroke-linecap: square"/>
   </g>
   <g id="patch_5">
    <path d="M 79.59 118.657991 
L 556.56 118.657991 
" style="fill: none; stroke: #262626; stroke-width: 1.875; stroke-linejoin: miter; stroke-linecap: square"/>
   </g>
   <g id="patch_6">
    <path d="M 79.59 19.44 
L 556.56 19.44 
" style="fill: none; stroke: #262626; stroke-width: 1.875; stroke-linejoin: miter; stroke-linecap: square"/>
   </g>
  </g>
  <g id="axes_2">
   <g id="patch_7">
    <path d="M 79.59 290.22 
L 556.56 290.22 
L 556.56 191.002009 
L 79.59 191.002009 
z
" style="fill: #ffffff"/>
   </g>
   <g id="matplotlib.axis_3">
    <g id="xtick_9">
     <g id="line2d_12">
      <g>
       <use xlink:href="#m4dc1e40f14" x="100.691537" y="290.22" style="fill: #262626; stroke: #262626; stroke-width: 1.875"/>
      </g>
     </g>
     <g id="text_13">
      <text style="fill: #262626; font: 16.5px 'Arial', 'DejaVu Sans', 'Liberation Sans', 'Bitstream Vera Sans', sans-serif; text-anchor: middle" x="100.691537" y="315.257422" transform="rotate(-0 100.691537 315.257422)">0</text>
     </g>
    </g>
    <g id="xtick_10">
     <g id="line2d_13">
      <g>
       <use xlink:href="#m4dc1e40f14" x="158.583272" y="290.22" style="fill: #262626; stroke: #262626; stroke-width: 1.875"/>
      </g>
     </g>
     <g id="text_14">
      <text style="fill: #262626; font: 16.5px 'Arial', 'DejaVu Sans', 'Liberation Sans', 'Bitstream Vera Sans', sans-serif; text-anchor: middle" x="158.583272" y="315.257422" transform="rotate(-0 158.583272 315.257422)">2</text>
     </g>
    </g>
    <g id="xtick_11">
     <g id="line2d_14">
      <g>
       <use xlink:href="#m4dc1e40f14" x="216.475006" y="290.22" style="fill: #262626; stroke: #262626; stroke-width: 1.875"/>
      </g>
     </g>
     <g id="text_15">
      <text style="fill: #262626; font: 16.5px 'Arial', 'DejaVu Sans', 'Liberation Sans', 'Bitstream Vera Sans', sans-serif; text-anchor: middle" x="216.475006" y="315.257422" transform="rotate(-0 216.475006 315.257422)">4</text>
     </g>
    </g>
    <g id="xtick_12">
     <g id="line2d_15">
      <g>
       <use xlink:href="#m4dc1e40f14" x="274.366741" y="290.22" style="fill: #262626; stroke: #262626; stroke-width: 1.875"/>
      </g>
     </g>
     <g id="text_16">
      <text style="fill: #262626; font: 16.5px 'Arial', 'DejaVu Sans', 'Liberation Sans', 'Bitstream Vera Sans', sans-serif; text-anchor: middle" x="274.366741" y="315.257422" transform="rotate(-0 274.366741 315.257422)">6</text>
     </g>
    </g>
    <g id="xtick_13">
     <g id="line2d_16">
      <g>
       <use xlink:href="#m4dc1e40f14" x="332.258475" y="290.22" style="fill: #262626; stroke: #262626; stroke-width: 1.875"/>
      </g>
     </g>
     <g id="text_17">
      <text style="fill: #262626; font: 16.5px 'Arial', 'DejaVu Sans', 'Liberation Sans', 'Bitstream Vera Sans', sans-serif; text-anchor: middle" x="332.258475" y="315.257422" transform="rotate(-0 332.258475 315.257422)">8</text>
     </g>
    </g>
    <g id="xtick_14">
     <g id="line2d_17">
      <g>
       <use xlink:href="#m4dc1e40f14" x="390.150209" y="290.22" style="fill: #262626; stroke: #262626; stroke-width: 1.875"/>
      </g>
     </g>
     <g id="text_18">
      <text style="fill: #262626; font: 16.5px 'Arial', 'DejaVu Sans', 'Liberation Sans', 'Bitstream Vera Sans', sans-serif; text-anchor: middle" x="390.150209" y="315.257422" transform="rotate(-0 390.150209 315.257422)">10</text>
     </g>
    </g>
    <g id="xtick_15">
     <g id="line2d_18">
      <g>
       <use xlink:href="#m4dc1e40f14" x="448.041944" y="290.22" style="fill: #262626; stroke: #262626; stroke-width: 1.875"/>
      </g>
     </g>
     <g id="text_19">
      <text style="fill: #262626; font: 16.5px 'Arial', 'DejaVu Sans', 'Liberation Sans', 'Bitstream Vera Sans', sans-serif; text-anchor: middle" x="448.041944" y="315.257422" transform="rotate(-0 448.041944 315.257422)">12</text>
     </g>
    </g>
    <g id="xtick_16">
     <g id="line2d_19">
      <g>
       <use xlink:href="#m4dc1e40f14" x="505.933678" y="290.22" style="fill: #262626; stroke: #262626; stroke-width: 1.875"/>
      </g>
     </g>
     <g id="text_20">
      <text style="fill: #262626; font: 16.5px 'Arial', 'DejaVu Sans', 'Liberation Sans', 'Bitstream Vera Sans', sans-serif; text-anchor: middle" x="505.933678" y="315.257422" transform="rotate(-0 505.933678 315.257422)">14</text>
     </g>
    </g>
    <g id="text_21">
     <text style="fill: #262626; font: 18px 'Arial', 'DejaVu Sans', 'Liberation Sans', 'Bitstream Vera Sans', sans-serif; text-anchor: middle" x="318.075" y="336.366094" transform="rotate(-0 318.075 336.366094)">time (s)</text>
    </g>
   </g>
   <g id="matplotlib.axis_4">
    <g id="ytick_3">
     <g id="line2d_20">
      <g>
       <use xlink:href="#m77ac4ea105" x="79.59" y="255.99636" style="fill: #262626; stroke: #262626; stroke-width: 1.875"/>
      </g>
     </g>
     <g id="text_22">
      <text style="fill: #262626; font: 16.5px 'Arial', 'DejaVu Sans', 'Liberation Sans', 'Bitstream Vera Sans', sans-serif; text-anchor: end" x="67.09" y="262.265071" transform="rotate(-0 67.09 262.265071)">0.5</text>
     </g>
    </g>
    <g id="ytick_4">
     <g id="line2d_21">
      <g>
       <use xlink:href="#m77ac4ea105" x="79.59" y="194.085627" style="fill: #262626; stroke: #262626; stroke-width: 1.875"/>
      </g>
     </g>
     <g id="text_23">
      <text style="fill: #262626; font: 16.5px 'Arial', 'DejaVu Sans', 'Liberation Sans', 'Bitstream Vera Sans', sans-serif; text-anchor: end" x="67.09" y="200.354338" transform="rotate(-0 67.09 200.354338)">1.0</text>
     </g>
    </g>
    <g id="text_24">
     <text style="fill: #262626; font: 18px 'Arial', 'DejaVu Sans', 'Liberation Sans', 'Bitstream Vera Sans', sans-serif; text-anchor: middle" x="33.106406" y="240.611004" transform="rotate(-90 33.106406 240.611004)">R2</text>
    </g>
   </g>
   <g id="line2d_22">
    <path d="M 101.270455 203.148278 
L 102.428289 201.497868 
L 103.007207 201.769534 
L 103.586124 202.705197 
L 104.743959 203.442108 
L 105.322876 204.188753 
L 105.901793 204.570244 
L 106.480711 209.545338 
L 107.059628 224.889749 
L 107.638545 221.98046 
L 108.217463 217.282806 
L 108.79638 210.987033 
L 109.375297 207.523982 
L 109.954215 205.615889 
L 110.533132 206.281532 
L 111.112049 207.149394 
L 111.690967 209.790004 
L 112.269884 208.568848 
L 112.848801 211.528686 
L 113.427719 224.4463 
L 114.006636 255.517131 
L 114.585553 238.847032 
L 115.164471 241.820879 
L 115.743388 259.144099 
L 116.322305 256.28845 
L 116.901223 229.846905 
L 117.48014 228.918203 
L 118.059058 257.836364 
L 119.216892 236.137562 
L 119.79581 254.137033 
L 120.374727 255.304545 
L 121.532562 229.322192 
L 122.111479 230.226423 
L 122.690396 234.06183 
L 123.269314 232.755632 
L 123.848231 226.949509 
L 124.427148 223.961362 
L 125.006066 216.338746 
L 125.584983 210.9333 
L 126.1639 210.739034 
L 126.742818 215.83084 
L 127.321735 215.188832 
L 127.900652 212.811951 
L 128.47957 212.346559 
L 129.058487 210.000107 
L 129.637404 203.4914 
L 130.216322 200.063541 
L 130.795239 199.009343 
L 131.374156 201.910675 
L 131.953074 206.879265 
L 133.110908 214.129252 
L 133.689826 215.440775 
L 134.268743 214.662937 
L 134.847661 212.844062 
L 136.005495 203.457429 
L 136.584413 200.834698 
L 137.16333 201.296554 
L 137.742247 205.071858 
L 138.321165 218.216705 
L 138.900082 228.033437 
L 139.478999 212.373834 
L 140.057917 205.421557 
L 140.636834 214.476042 
L 141.215751 213.801606 
L 141.794669 202.594998 
L 142.373586 203.766936 
L 142.952503 207.393087 
L 144.110338 216.747814 
L 145.268173 215.509027 
L 146.426007 228.068395 
L 147.004925 235.187648 
L 147.583842 240.880864 
L 148.162759 231.239094 
L 148.741677 219.263817 
L 149.320594 217.085922 
L 149.899511 214.055021 
L 150.478429 208.749117 
L 151.636264 205.451382 
L 152.215181 204.284643 
L 152.794098 205.317167 
L 153.951933 211.117427 
L 154.53085 211.409795 
L 155.109768 214.552975 
L 155.688685 212.120898 
L 156.267602 208.299928 
L 156.84652 209.052337 
L 157.425437 213.796689 
L 158.004354 216.997521 
L 158.583272 218.506499 
L 159.162189 224.468349 
L 159.741106 238.953956 
L 160.320024 230.793627 
L 160.898941 231.567468 
L 161.477858 261.374654 
L 162.056776 237.445365 
L 162.635693 263.944245 
L 163.21461 227.116406 
L 163.793528 219.336862 
L 164.951362 212.797346 
L 165.53028 203.574289 
L 166.109197 201.651075 
L 166.688114 202.584178 
L 167.267032 206.556729 
L 167.845949 207.727073 
L 168.424866 211.249046 
L 169.003784 212.577476 
L 169.582701 211.63433 
L 170.161619 221.143945 
L 170.740536 225.692691 
L 171.319453 232.380063 
L 171.898371 221.782143 
L 172.477288 220.415469 
L 173.056205 222.011716 
L 173.635123 221.914773 
L 174.21404 214.832134 
L 174.792957 214.992441 
L 175.371875 210.386616 
L 175.950792 208.568098 
L 176.529709 205.383522 
L 177.108627 206.879663 
L 177.687544 209.425386 
L 178.266461 218.787554 
L 178.845379 234.809371 
L 179.424296 255.022627 
L 180.003213 246.838806 
L 181.161048 225.557966 
L 181.739965 218.72059 
L 182.318883 217.203316 
L 182.8978 224.312587 
L 183.476717 221.98365 
L 184.055635 229.697658 
L 184.634552 224.964811 
L 185.792387 247.440986 
L 186.371304 285.710091 
L 186.950222 277.180012 
L 187.529139 264.387066 
L 188.108056 260.169339 
L 188.686974 270.302754 
L 189.265891 258.342099 
L 189.844808 234.521277 
L 190.423726 263.152524 
L 191.002643 261.90162 
L 191.58156 234.049258 
L 192.160478 250.219708 
L 192.739395 252.292288 
L 193.318312 258.653086 
L 193.89723 231.814149 
L 194.476147 230.22245 
L 195.055064 235.148119 
L 195.633982 232.323264 
L 196.212899 227.319922 
L 196.791816 224.768269 
L 197.370734 219.980964 
L 197.949651 211.682337 
L 198.528568 212.215278 
L 199.107486 215.605601 
L 199.686403 215.422148 
L 200.26532 216.080201 
L 200.844238 218.256509 
L 201.423155 221.554373 
L 202.002072 215.584453 
L 203.159907 211.626945 
L 203.738824 212.941959 
L 204.896659 209.046962 
L 205.475577 206.825399 
L 206.054494 210.961983 
L 206.633411 213.419819 
L 207.212329 211.491756 
L 207.791246 210.57684 
L 208.370163 207.642522 
L 208.949081 205.387368 
L 209.527998 207.280037 
L 210.106915 214.104897 
L 210.685833 228.575991 
L 211.26475 238.35643 
L 211.843667 222.197042 
L 212.422585 217.018851 
L 213.580419 224.735705 
L 214.159337 213.530884 
L 214.738254 210.225007 
L 215.317171 207.764407 
L 216.475006 214.357323 
L 217.053923 213.248329 
L 217.632841 214.750313 
L 218.211758 218.582815 
L 218.790675 227.892571 
L 219.369593 232.570497 
L 219.94851 242.132386 
L 220.527427 233.941271 
L 221.106345 217.848962 
L 221.685262 217.344815 
L 222.26418 215.813178 
L 222.843097 208.973946 
L 223.422014 206.862853 
L 224.579849 204.368449 
L 225.158766 205.650515 
L 225.737684 207.896014 
L 226.316601 211.884266 
L 226.895518 211.590971 
L 227.474436 214.913905 
L 228.053353 214.191264 
L 228.63227 209.539593 
L 229.211188 211.088124 
L 229.790105 217.003825 
L 230.369022 226.511267 
L 230.94794 227.254524 
L 232.105774 248.050026 
L 232.684692 233.618212 
L 233.263609 241.006154 
L 233.842526 266.022461 
L 234.421444 236.562695 
L 235.000361 253.562983 
L 236.158196 228.298504 
L 236.737113 230.622573 
L 237.894948 209.062763 
L 238.473865 206.153077 
L 239.052782 207.518654 
L 239.6317 212.89447 
L 240.210617 214.187503 
L 241.368452 222.439703 
L 241.947369 220.728719 
L 242.526287 233.35327 
L 243.105204 235.986219 
L 243.684121 249.13964 
L 244.263039 237.203877 
L 244.841956 230.22433 
L 245.420873 225.647505 
L 245.999791 224.165817 
L 246.578708 220.667041 
L 247.157625 222.179957 
L 247.736543 214.446457 
L 248.31546 213.98212 
L 248.894377 206.716465 
L 249.473295 208.361418 
L 250.052212 207.904885 
L 250.631129 215.15391 
L 251.210047 228.721635 
L 251.788964 250.187022 
L 252.367881 250.230494 
L 252.946799 235.855991 
L 253.525716 225.568649 
L 254.104633 219.492568 
L 254.683551 217.11295 
L 255.262468 220.267146 
L 255.841385 214.539142 
L 256.99922 220.843007 
L 257.578138 233.514997 
L 258.157055 239.443317 
L 258.735972 253.174901 
L 259.31489 249.694009 
L 259.893807 233.499226 
L 260.472724 235.655036 
L 261.051642 228.992283 
L 261.630559 234.825935 
L 262.209476 223.784025 
L 262.788394 235.25681 
L 263.367311 231.99261 
L 263.946228 218.824947 
L 264.525146 217.173128 
L 265.104063 222.038259 
L 265.68298 228.964871 
L 266.261898 218.470427 
L 266.840815 220.622609 
L 267.419732 227.343638 
L 267.99865 227.4427 
L 268.577567 218.925596 
L 269.156484 216.619302 
L 269.735402 214.853577 
L 270.314319 208.769234 
L 270.893236 207.91341 
L 271.472154 208.000047 
L 272.051071 212.237641 
L 273.208906 213.987759 
L 273.787823 225.049754 
L 274.366741 220.014603 
L 274.945658 218.514578 
L 275.524575 213.821906 
L 276.103493 212.933127 
L 276.68241 210.17282 
L 277.261327 210.956071 
L 277.840245 209.709584 
L 278.998079 216.250434 
L 279.576997 213.117425 
L 280.155914 211.983929 
L 280.734831 208.018901 
L 281.313749 205.707496 
L 281.892666 207.074875 
L 282.471583 212.758292 
L 283.629418 237.312677 
L 284.208335 229.602737 
L 284.787253 225.261877 
L 285.36617 224.267071 
L 285.945087 236.960965 
L 286.524005 231.266545 
L 287.102922 221.047104 
L 287.681839 216.304493 
L 288.260757 215.700448 
L 288.839674 216.089649 
L 289.418591 217.032293 
L 289.997509 214.788978 
L 290.576426 210.261929 
L 291.155343 210.037948 
L 291.734261 211.950015 
L 292.313178 220.666123 
L 292.892096 231.467199 
L 293.471013 218.849639 
L 294.628848 203.897411 
L 295.207765 201.447594 
L 295.786682 203.608611 
L 296.3656 205.19816 
L 296.944517 204.964787 
L 297.523434 205.63753 
L 298.102352 206.751284 
L 298.681269 208.688476 
L 299.839104 207.043885 
L 300.418021 205.595969 
L 300.996938 203.43959 
L 301.575856 205.620692 
L 302.154773 209.464946 
L 303.891525 236.050563 
L 305.04936 226.409407 
L 305.628277 233.649358 
L 306.207194 243.217659 
L 306.786112 240.963946 
L 307.365029 241.32147 
L 307.943946 255.205692 
L 308.522864 261.408509 
L 309.101781 250.897798 
L 309.680699 221.779498 
L 310.259616 209.182753 
L 310.838533 206.155921 
L 311.417451 207.383898 
L 311.996368 212.496842 
L 312.575285 214.042592 
L 313.154203 218.010631 
L 313.73312 216.905378 
L 314.312037 212.354279 
L 314.890955 211.935699 
L 315.469872 209.640958 
L 316.048789 208.721961 
L 316.627707 209.466467 
L 317.785541 223.094898 
L 318.364459 225.07921 
L 318.943376 222.476408 
L 319.522293 212.176502 
L 320.101211 210.019274 
L 320.680128 212.780576 
L 321.259045 211.28004 
L 321.837963 201.819698 
L 322.41688 197.75825 
L 322.995797 197.431196 
L 323.574715 197.584887 
L 324.153632 198.1411 
L 324.732549 199.335727 
L 325.311467 199.991007 
L 325.890384 199.961249 
L 326.469301 199.39789 
L 327.627136 197.521493 
L 328.206054 196.939466 
L 328.784971 196.703189 
L 329.363888 195.822972 
L 329.942806 195.511917 
L 330.521723 196.433149 
L 331.10064 197.644364 
L 331.679558 199.584339 
L 332.837392 200.827998 
L 333.41631 202.3257 
L 333.995227 204.151303 
L 335.153062 202.681465 
L 335.731979 202.439059 
L 336.889814 201.56186 
L 337.468731 201.56392 
L 338.047648 202.595501 
L 339.7844 207.249367 
L 340.363318 205.471359 
L 340.942235 204.705003 
L 341.521152 205.131684 
L 342.10007 205.396632 
L 343.257904 203.466762 
L 343.836822 203.351108 
L 344.415739 204.050206 
L 344.994657 204.152377 
L 346.152491 202.81394 
L 346.731409 202.859763 
L 347.310326 202.323857 
L 347.889243 201.034828 
L 350.204913 197.321101 
L 350.78383 197.293899 
L 351.362747 198.374996 
L 351.941665 200.172993 
L 352.520582 199.749236 
L 353.099499 199.680771 
L 353.678417 202.388584 
L 354.257334 209.601991 
L 354.836251 209.77377 
L 355.415169 212.016737 
L 355.994086 212.045656 
L 356.573003 207.096959 
L 357.151921 211.875271 
L 357.730838 209.327312 
L 358.309755 199.364048 
L 358.888673 196.796627 
L 359.46759 197.267394 
L 360.625425 204.997924 
L 361.204342 205.109264 
L 361.783259 204.776148 
L 362.362177 206.939198 
L 362.941094 207.470836 
L 363.520012 205.911491 
L 364.098929 206.604001 
L 364.677846 209.209741 
L 365.256764 209.989088 
L 365.835681 208.691795 
L 366.414598 209.052772 
L 366.993516 212.148634 
L 367.572433 216.60845 
L 368.15135 215.460092 
L 368.730268 213.348649 
L 369.309185 213.571227 
L 369.888102 214.457243 
L 370.46702 214.989116 
L 371.045937 214.69717 
L 371.624854 211.303637 
L 372.203772 210.348834 
L 372.782689 214.270192 
L 373.361606 223.686976 
L 373.940524 221.576214 
L 375.677276 208.111568 
L 376.256193 204.901749 
L 376.83511 204.132162 
L 377.414028 203.732996 
L 377.992945 201.1209 
L 378.571862 199.588806 
L 379.15078 198.952099 
L 379.729697 198.871102 
L 380.887532 198.294149 
L 381.466449 198.6442 
L 382.045367 199.776081 
L 383.203201 197.007163 
L 383.782119 196.625316 
L 384.361036 196.901117 
L 385.518871 198.15147 
L 386.097788 198.353269 
L 386.676705 198.395334 
L 387.255623 199.303301 
L 387.83454 202.334695 
L 388.413457 206.911898 
L 390.150209 224.967787 
L 390.729127 230.017056 
L 391.308044 236.346403 
L 391.886961 240.379379 
L 393.044796 251.086236 
L 394.202631 216.044617 
L 394.781548 206.630483 
L 395.360465 203.148943 
L 395.939383 201.21633 
L 396.5183 200.282632 
L 397.097218 200.291299 
L 397.676135 200.57869 
L 398.255052 201.163265 
L 399.412887 201.4883 
L 399.991804 202.583977 
L 400.570722 203.41853 
L 401.149639 204.83304 
L 401.728556 205.780048 
L 402.307474 207.320843 
L 402.886391 211.218551 
L 403.465308 214.020637 
L 404.044226 213.704826 
L 404.623143 212.595108 
L 405.20206 211.187444 
L 405.780978 211.324383 
L 406.359895 211.906877 
L 406.938812 209.858512 
L 408.096647 204.011793 
L 408.675564 201.386191 
L 409.254482 200.231025 
L 410.412316 202.249594 
L 410.991234 204.316635 
L 412.149068 207.155102 
L 412.727986 205.650888 
L 413.306903 204.623141 
L 413.88582 204.902952 
L 414.464738 205.869065 
L 415.043655 204.640279 
L 415.622573 203.901354 
L 416.20149 204.202374 
L 417.359325 207.673494 
L 417.938242 208.684624 
L 418.517159 209.979873 
L 419.674994 213.614879 
L 420.832829 213.435591 
L 421.411746 212.131971 
L 421.990663 210.175456 
L 422.569581 207.539995 
L 423.148498 206.429218 
L 423.727415 205.7217 
L 424.306333 206.761761 
L 424.88525 207.305717 
L 425.464167 209.906625 
L 426.622002 227.057327 
L 427.200919 229.800372 
L 427.779837 234.963647 
L 428.358754 235.469563 
L 428.937671 234.206377 
L 430.095506 237.735764 
L 430.674423 222.904041 
L 431.253341 218.418266 
L 431.832258 219.05753 
L 432.411176 222.814568 
L 432.990093 221.715699 
L 434.147928 215.6931 
L 434.726845 215.28507 
L 435.305762 216.760134 
L 435.88468 213.99746 
L 436.463597 212.665955 
L 437.042514 212.546973 
L 437.621432 211.643736 
L 438.200349 208.224005 
L 438.779266 208.430185 
L 439.358184 210.296488 
L 439.937101 213.534266 
L 440.516018 215.25575 
L 441.094936 213.568282 
L 441.673853 213.879291 
L 442.25277 214.509168 
L 442.831688 214.781998 
L 443.410605 215.448783 
L 443.989522 212.299741 
L 444.56844 210.630163 
L 445.147357 215.08434 
L 445.726274 222.734936 
L 446.305192 228.843166 
L 446.884109 227.473194 
L 447.463026 224.121181 
L 448.620861 216.264285 
L 449.199778 216.281049 
L 449.778696 216.151231 
L 450.936531 211.280851 
L 451.515448 209.383261 
L 452.094365 206.074262 
L 452.673283 204.603768 
L 453.2522 203.612649 
L 453.831117 204.702953 
L 454.410035 206.306348 
L 454.988952 204.872248 
L 456.146787 200.338434 
L 456.725704 199.388985 
L 457.304621 199.033378 
L 457.883539 199.134286 
L 458.462456 200.824232 
L 459.041373 204.332158 
L 459.620291 208.76947 
L 460.778125 223.140699 
L 461.357043 228.804095 
L 462.514877 232.195616 
L 463.093795 232.985322 
L 463.672712 236.098328 
L 464.251629 237.898634 
L 465.409464 248.56058 
L 465.988381 239.345824 
L 466.567299 222.783587 
L 467.146216 209.720392 
L 467.725134 203.981456 
L 468.304051 200.934792 
L 468.882968 200.206909 
L 469.461886 200.138914 
L 470.61972 200.970157 
L 471.198638 201.245995 
L 471.777555 201.196934 
L 472.356472 202.217658 
L 473.514307 203.309422 
L 474.093224 205.312226 
L 474.672142 207.837195 
L 475.829976 214.424118 
L 476.408894 215.118586 
L 476.987811 215.310224 
L 477.566728 215.253335 
L 478.145646 215.039067 
L 478.724563 214.513863 
L 479.30348 211.386286 
L 480.461315 202.986132 
L 481.040232 199.512852 
L 481.61915 198.206346 
L 482.776984 197.904828 
L 483.355902 198.39956 
L 484.513736 200.634135 
L 485.092654 200.151545 
L 485.671571 200.762541 
L 486.250489 203.016425 
L 486.829406 202.738142 
L 487.408323 200.62145 
L 487.987241 197.33167 
L 488.566158 197.203878 
L 489.145075 200.764064 
L 489.723993 206.245639 
L 490.30291 207.847434 
L 490.881827 208.640493 
L 492.039662 211.290294 
L 492.618579 211.512448 
L 493.197497 210.995355 
L 493.776414 209.850399 
L 494.355331 209.080368 
L 494.934249 208.039743 
L 496.092083 205.288261 
L 496.671001 204.983001 
L 497.249918 205.941338 
L 497.828835 208.240538 
L 498.407753 216.422234 
L 498.98667 226.200314 
L 499.565587 229.409373 
L 500.144505 234.885949 
L 500.723422 235.244068 
L 501.302339 230.525483 
L 501.881257 220.962648 
L 502.460174 215.486453 
L 503.039092 213.62759 
L 503.618009 214.517086 
L 504.196926 214.399622 
L 504.775844 216.538337 
L 506.512596 220.894916 
L 507.091513 220.695482 
L 507.67043 220.90926 
L 508.828265 216.933054 
L 509.407182 214.533552 
L 509.9861 213.205356 
L 510.565017 207.745095 
L 511.143934 204.226706 
L 511.722852 201.835696 
L 512.301769 202.288945 
L 512.880686 201.871355 
L 513.459604 199.597872 
L 514.038521 199.002757 
L 514.617438 199.837399 
L 515.196356 200.284102 
L 515.775273 200.24402 
L 516.35419 199.993867 
L 516.933108 200.348128 
L 517.512025 202.478403 
L 518.090942 208.508608 
L 518.66986 220.842642 
L 519.248777 228.044787 
L 519.827695 227.870985 
L 520.406612 223.473837 
L 520.985529 221.376242 
L 521.564447 220.134274 
L 523.301199 210.753927 
L 523.880116 208.550055 
L 524.459033 206.844481 
L 525.037951 206.405361 
L 525.616868 205.466458 
L 526.774703 206.366572 
L 527.35362 205.1271 
L 528.511455 200.605826 
L 529.090372 199.422496 
L 529.669289 199.029931 
L 530.248207 199.573998 
L 530.827124 201.222894 
L 531.406041 204.403298 
L 531.984959 205.800503 
L 532.563876 206.599489 
L 533.142793 208.849342 
L 533.721711 212.628963 
L 534.300628 215.413247 
L 534.879545 219.101537 
L 534.879545 219.101537 
" clip-path="url(#p1c275b51f1)" style="fill: none; stroke: #1f77b4; stroke-width: 2.25; stroke-linecap: round"/>
   </g>
   <g id="patch_8">
    <path d="M 79.59 290.22 
L 79.59 191.002009 
" style="fill: none; stroke: #262626; stroke-width: 1.875; stroke-linejoin: miter; stroke-linecap: square"/>
   </g>
   <g id="patch_9">
    <path d="M 556.56 290.22 
L 556.56 191.002009 
" style="fill: none; stroke: #262626; stroke-width: 1.875; stroke-linejoin: miter; stroke-linecap: square"/>
   </g>
   <g id="patch_10">
    <path d="M 79.59 290.22 
L 556.56 290.22 
" style="fill: none; stroke: #262626; stroke-width: 1.875; stroke-linejoin: miter; stroke-linecap: square"/>
   </g>
   <g id="patch_11">
    <path d="M 79.59 191.002009 
L 556.56 191.002009 
" style="fill: none; stroke: #262626; stroke-width: 1.875; stroke-linejoin: miter; stroke-linecap: square"/>
   </g>
  </g>
 </g>
 <defs>
  <clipPath id="pd0e549da29">
   <rect x="79.59" y="19.44" width="476.97" height="99.217991"/>
  </clipPath>
  <clipPath id="p1c275b51f1">
   <rect x="79.59" y="191.002009" width="476.97" height="99.217991"/>
  </clipPath>
 </defs>
</svg>
