<?xml version="1.0" encoding="utf-8" standalone="no"?>
<!DOCTYPE svg PUBLIC "-//W3C//DTD SVG 1.1//EN"
  "http://www.w3.org/Graphics/SVG/1.1/DTD/svg11.dtd">
<svg xmlns:xlink="http://www.w3.org/1999/xlink" width="576pt" height="504pt" viewBox="0 0 576 504" xmlns="http://www.w3.org/2000/svg" version="1.1">
 <metadata>
  <rdf:RDF xmlns:dc="http://purl.org/dc/elements/1.1/" xmlns:cc="http://creativecommons.org/ns#" xmlns:rdf="http://www.w3.org/1999/02/22-rdf-syntax-ns#">
   <cc:Work>
    <dc:type rdf:resource="http://purl.org/dc/dcmitype/StillImage"/>
    <dc:date>2024-07-08T15:22:16.335659</dc:date>
    <dc:format>image/svg+xml</dc:format>
    <dc:creator>
     <cc:Agent>
      <dc:title>Matplotlib v3.8.0, https://matplotlib.org/</dc:title>
     </cc:Agent>
    </dc:creator>
   </cc:Work>
  </rdf:RDF>
 </metadata>
 <defs>
  <style type="text/css">*{stroke-linejoin: round; stroke-linecap: butt}</style>
 </defs>
 <g id="figure_1">
  <g id="patch_1">
   <path d="M 0 504 
L 576 504 
L 576 0 
L 0 0 
z
" style="fill: #ffffff"/>
  </g>
  <g id="axes_1">
   <g id="patch_2">
    <path d="M 79.59 111.18 
L 556.56 111.18 
L 556.56 19.44 
L 79.59 19.44 
z
" style="fill: #ffffff"/>
   </g>
   <g id="matplotlib.axis_1">
    <g id="xtick_1">
     <g id="line2d_1">
      <defs>
       <path id="m7abe6c4f0c" d="M 0 0 
L 0 9 
" style="stroke: #262626; stroke-width: 1.875"/>
      </defs>
      <g>
       <use xlink:href="#m7abe6c4f0c" x="79.59" y="111.18" style="fill: #262626; stroke: #262626; stroke-width: 1.875"/>
      </g>
     </g>
     <g id="text_1">
      <text style="fill: #262626; font: 16.5px 'Arial', 'DejaVu Sans', 'Liberation Sans', 'Bitstream Vera Sans', sans-serif; text-anchor: middle" x="79.59" y="136.217422" transform="rotate(-0 79.59 136.217422)">0</text>
     </g>
    </g>
    <g id="xtick_2">
     <g id="line2d_2">
      <g>
       <use xlink:href="#m7abe6c4f0c" x="143.186" y="111.18" style="fill: #262626; stroke: #262626; stroke-width: 1.875"/>
      </g>
     </g>
     <g id="text_2">
      <text style="fill: #262626; font: 16.5px 'Arial', 'DejaVu Sans', 'Liberation Sans', 'Bitstream Vera Sans', sans-serif; text-anchor: middle" x="143.186" y="136.217422" transform="rotate(-0 143.186 136.217422)">2</text>
     </g>
    </g>
    <g id="xtick_3">
     <g id="line2d_3">
      <g>
       <use xlink:href="#m7abe6c4f0c" x="206.782" y="111.18" style="fill: #262626; stroke: #262626; stroke-width: 1.875"/>
      </g>
     </g>
     <g id="text_3">
      <text style="fill: #262626; font: 16.5px 'Arial', 'DejaVu Sans', 'Liberation Sans', 'Bitstream Vera Sans', sans-serif; text-anchor: middle" x="206.782" y="136.217422" transform="rotate(-0 206.782 136.217422)">4</text>
     </g>
    </g>
    <g id="xtick_4">
     <g id="line2d_4">
      <g>
       <use xlink:href="#m7abe6c4f0c" x="270.378" y="111.18" style="fill: #262626; stroke: #262626; stroke-width: 1.875"/>
      </g>
     </g>
     <g id="text_4">
      <text style="fill: #262626; font: 16.5px 'Arial', 'DejaVu Sans', 'Liberation Sans', 'Bitstream Vera Sans', sans-serif; text-anchor: middle" x="270.378" y="136.217422" transform="rotate(-0 270.378 136.217422)">6</text>
     </g>
    </g>
    <g id="xtick_5">
     <g id="line2d_5">
      <g>
       <use xlink:href="#m7abe6c4f0c" x="333.974" y="111.18" style="fill: #262626; stroke: #262626; stroke-width: 1.875"/>
      </g>
     </g>
     <g id="text_5">
      <text style="fill: #262626; font: 16.5px 'Arial', 'DejaVu Sans', 'Liberation Sans', 'Bitstream Vera Sans', sans-serif; text-anchor: middle" x="333.974" y="136.217422" transform="rotate(-0 333.974 136.217422)">8</text>
     </g>
    </g>
    <g id="xtick_6">
     <g id="line2d_6">
      <g>
       <use xlink:href="#m7abe6c4f0c" x="397.57" y="111.18" style="fill: #262626; stroke: #262626; stroke-width: 1.875"/>
      </g>
     </g>
     <g id="text_6">
      <text style="fill: #262626; font: 16.5px 'Arial', 'DejaVu Sans', 'Liberation Sans', 'Bitstream Vera Sans', sans-serif; text-anchor: middle" x="397.57" y="136.217422" transform="rotate(-0 397.57 136.217422)">10</text>
     </g>
    </g>
    <g id="xtick_7">
     <g id="line2d_7">
      <g>
       <use xlink:href="#m7abe6c4f0c" x="461.166" y="111.18" style="fill: #262626; stroke: #262626; stroke-width: 1.875"/>
      </g>
     </g>
     <g id="text_7">
      <text style="fill: #262626; font: 16.5px 'Arial', 'DejaVu Sans', 'Liberation Sans', 'Bitstream Vera Sans', sans-serif; text-anchor: middle" x="461.166" y="136.217422" transform="rotate(-0 461.166 136.217422)">12</text>
     </g>
    </g>
    <g id="xtick_8">
     <g id="line2d_8">
      <g>
       <use xlink:href="#m7abe6c4f0c" x="524.762" y="111.18" style="fill: #262626; stroke: #262626; stroke-width: 1.875"/>
      </g>
     </g>
     <g id="text_8">
      <text style="fill: #262626; font: 16.5px 'Arial', 'DejaVu Sans', 'Liberation Sans', 'Bitstream Vera Sans', sans-serif; text-anchor: middle" x="524.762" y="136.217422" transform="rotate(-0 524.762 136.217422)">14</text>
     </g>
    </g>
    <g id="text_9">
     <text style="fill: #262626; font: 18px 'Arial', 'DejaVu Sans', 'Liberation Sans', 'Bitstream Vera Sans', sans-serif; text-anchor: middle" x="318.075" y="157.326094" transform="rotate(-0 318.075 157.326094)">time (s)</text>
    </g>
   </g>
   <g id="matplotlib.axis_2">
    <g id="ytick_1">
     <g id="line2d_9">
      <defs>
       <path id="m17d97490da" d="M 0 0 
L -9 0 
" style="stroke: #262626; stroke-width: 1.875"/>
      </defs>
      <g>
       <use xlink:href="#m17d97490da" x="79.59" y="89.319091" style="fill: #262626; stroke: #262626; stroke-width: 1.875"/>
      </g>
     </g>
     <g id="text_10">
      <text style="fill: #262626; font: 16.5px 'Arial', 'DejaVu Sans', 'Liberation Sans', 'Bitstream Vera Sans', sans-serif; text-anchor: end" x="67.09" y="95.587802" transform="rotate(-0 67.09 95.587802)">10</text>
     </g>
    </g>
    <g id="ytick_2">
     <g id="line2d_10">
      <g>
       <use xlink:href="#m17d97490da" x="79.59" y="64.046364" style="fill: #262626; stroke: #262626; stroke-width: 1.875"/>
      </g>
     </g>
     <g id="text_11">
      <text style="fill: #262626; font: 16.5px 'Arial', 'DejaVu Sans', 'Liberation Sans', 'Bitstream Vera Sans', sans-serif; text-anchor: end" x="67.09" y="70.315075" transform="rotate(-0 67.09 70.315075)">20</text>
     </g>
    </g>
    <g id="ytick_3">
     <g id="line2d_11">
      <g>
       <use xlink:href="#m17d97490da" x="79.59" y="38.773636" style="fill: #262626; stroke: #262626; stroke-width: 1.875"/>
      </g>
     </g>
     <g id="text_12">
      <text style="fill: #262626; font: 16.5px 'Arial', 'DejaVu Sans', 'Liberation Sans', 'Bitstream Vera Sans', sans-serif; text-anchor: end" x="67.09" y="45.042347" transform="rotate(-0 67.09 45.042347)">30</text>
     </g>
    </g>
    <g id="text_13">
     <text style="fill: #262626; font: 18px 'Arial', 'DejaVu Sans', 'Liberation Sans', 'Bitstream Vera Sans', sans-serif; text-anchor: middle" x="38.350313" y="65.31" transform="rotate(-90 38.350313 65.31)">cf</text>
    </g>
   </g>
   <g id="line2d_12">
    <path d="M 80.22596 103.219091 
L 80.86192 99.428182 
L 82.13384 96.900909 
L 89.76536 88.055455 
L 90.40132 86.791818 
L 92.94516 86.791818 
L 93.58112 88.055455 
L 94.21708 88.055455 
L 94.85304 89.319091 
L 96.12496 89.319091 
L 96.76092 90.582727 
L 98.03284 90.582727 
L 98.6688 89.319091 
L 106.93628 89.319091 
L 107.57224 88.055455 
L 108.84416 88.055455 
L 109.48012 86.791818 
L 110.75204 86.791818 
L 111.388 85.528182 
L 112.02396 85.528182 
L 112.65992 103.219091 
L 112.65992 84.264545 
L 113.29588 103.219091 
L 113.29588 84.264545 
L 113.93184 104.482727 
L 117.7476 104.482727 
L 120.29144 76.682727 
L 120.9274 75.419091 
L 124.74316 107.01 
L 125.37912 107.01 
L 125.37912 80.473636 
L 126.01508 105.746364 
L 126.65104 85.528182 
L 127.287 88.055455 
L 141.91408 88.055455 
L 142.55004 86.791818 
L 143.186 86.791818 
L 143.82196 85.528182 
L 144.45792 98.164545 
L 144.45792 84.264545 
L 145.09388 98.164545 
L 145.09388 83.000909 
L 145.72984 99.428182 
L 145.72984 83.000909 
L 146.3658 99.428182 
L 146.3658 80.473636 
L 147.00176 99.428182 
L 147.00176 79.21 
L 147.63772 99.428182 
L 147.63772 79.21 
L 148.27368 100.691818 
L 148.27368 79.21 
L 148.90964 100.691818 
L 150.18156 100.691818 
L 150.81752 104.482727 
L 153.36136 104.482727 
L 156.54116 98.164545 
L 156.54116 45.091818 
L 157.17712 98.164545 
L 157.17712 45.091818 
L 157.81308 98.164545 
L 158.44904 98.164545 
L 158.44904 48.882727 
L 159.085 98.164545 
L 159.085 50.146364 
L 159.72096 50.146364 
L 160.35692 51.41 
L 162.90076 51.41 
L 163.53672 50.146364 
L 168.6244 50.146364 
L 169.26036 51.41 
L 171.16824 51.41 
L 171.8042 52.673636 
L 172.44016 86.791818 
L 172.44016 52.673636 
L 173.07612 86.791818 
L 173.07612 52.673636 
L 173.71208 88.055455 
L 173.71208 53.937273 
L 174.34804 89.319091 
L 174.34804 53.937273 
L 174.984 89.319091 
L 174.984 53.937273 
L 175.61996 90.582727 
L 178.1638 90.582727 
L 178.79976 89.319091 
L 186.43128 89.319091 
L 187.06724 88.055455 
L 188.33916 88.055455 
L 188.97512 86.791818 
L 189.61108 86.791818 
L 190.24704 85.528182 
L 190.883 85.528182 
L 190.883 53.937273 
L 191.51896 84.264545 
L 191.51896 53.937273 
L 192.15492 103.219091 
L 192.15492 52.673636 
L 192.79088 103.219091 
L 192.79088 51.41 
L 201.69432 51.41 
L 202.33028 50.146364 
L 204.87412 50.146364 
L 205.51008 48.882727 
L 206.14604 88.055455 
L 206.14604 48.882727 
L 206.782 88.055455 
L 206.782 48.882727 
L 207.41796 88.055455 
L 208.68988 88.055455 
L 209.32584 89.319091 
L 209.9618 89.319091 
L 210.59776 88.055455 
L 220.77312 88.055455 
L 221.40908 86.791818 
L 222.04504 86.791818 
L 222.04504 52.673636 
L 222.681 86.791818 
L 222.681 52.673636 
L 223.31696 85.528182 
L 223.31696 52.673636 
L 223.95292 85.528182 
L 223.95292 51.41 
L 224.58888 84.264545 
L 224.58888 51.41 
L 227.13272 51.41 
L 227.76868 50.146364 
L 232.2204 50.146364 
L 232.85636 51.41 
L 234.76424 51.41 
L 235.4002 52.673636 
L 236.03616 98.164545 
L 236.03616 45.091818 
L 236.67212 98.164545 
L 236.67212 45.091818 
L 237.30808 98.164545 
L 237.30808 43.828182 
L 237.94404 98.164545 
L 237.94404 43.828182 
L 238.58 98.164545 
L 238.58 43.828182 
L 239.21596 57.728182 
L 239.21596 45.091818 
L 239.85192 98.164545 
L 239.85192 56.464545 
L 241.12384 51.41 
L 242.39576 51.41 
L 243.03172 50.146364 
L 248.1194 50.146364 
L 248.75536 51.41 
L 250.02728 51.41 
L 250.66324 52.673636 
L 251.93516 52.673636 
L 252.57112 81.737273 
L 252.57112 53.937273 
L 253.20708 80.473636 
L 253.20708 53.937273 
L 253.84304 79.21 
L 253.84304 55.200909 
L 254.479 79.21 
L 254.479 55.200909 
L 255.11496 56.464545 
L 257.6588 96.900909 
L 258.29476 96.900909 
L 258.93072 95.637273 
L 259.56668 95.637273 
L 260.8386 90.582727 
L 262.11052 90.582727 
L 262.74648 89.319091 
L 264.0184 89.319091 
L 264.65436 105.746364 
L 264.65436 89.319091 
L 265.29032 105.746364 
L 265.29032 89.319091 
L 265.92628 90.582727 
L 266.56224 26.137273 
L 267.1982 24.873636 
L 267.83416 95.637273 
L 267.83416 24.873636 
L 268.47012 96.900909 
L 268.47012 23.61 
L 269.10608 96.900909 
L 269.10608 23.61 
L 269.74204 96.900909 
L 269.74204 24.873636 
L 270.378 96.900909 
L 270.378 53.937273 
L 271.01396 98.164545 
L 271.01396 53.937273 
L 271.64992 98.164545 
L 271.64992 52.673636 
L 272.28588 51.41 
L 272.92184 51.41 
L 273.5578 50.146364 
L 274.19376 51.41 
L 281.18932 51.41 
L 281.82528 50.146364 
L 284.36912 50.146364 
L 285.00508 105.746364 
L 285.00508 50.146364 
L 285.64104 105.746364 
L 285.64104 50.146364 
L 286.277 48.882727 
L 287.54892 48.882727 
L 291.36468 107.01 
L 292.00064 105.746364 
L 293.27256 105.746364 
L 293.90852 103.219091 
L 294.54448 99.428182 
L 295.18044 99.428182 
L 295.8164 98.164545 
L 296.45236 98.164545 
L 298.36024 90.582727 
L 298.9962 90.582727 
L 299.63216 89.319091 
L 299.63216 56.464545 
L 300.26812 89.319091 
L 300.26812 53.937273 
L 300.90408 88.055455 
L 300.90408 52.673636 
L 301.54004 88.055455 
L 301.54004 52.673636 
L 302.176 86.791818 
L 302.176 52.673636 
L 302.81196 51.41 
L 305.99176 51.41 
L 306.62772 50.146364 
L 311.7154 50.146364 
L 312.35136 51.41 
L 315.53116 51.41 
L 316.16712 50.146364 
L 317.43904 50.146364 
L 318.075 57.728182 
L 323.16268 107.01 
L 324.4346 107.01 
L 325.07056 105.746364 
L 327.6144 105.746364 
L 328.25036 104.482727 
L 332.06612 93.11 
L 332.70208 107.01 
L 332.70208 93.11 
L 333.33804 107.01 
L 333.33804 93.11 
L 333.974 107.01 
L 333.974 93.11 
L 334.60996 107.01 
L 334.60996 91.846364 
L 335.24592 105.746364 
L 335.24592 89.319091 
L 339.69764 89.319091 
L 340.3336 88.055455 
L 344.78532 88.055455 
L 345.42128 89.319091 
L 346.6932 89.319091 
L 347.32916 88.055455 
L 347.96512 88.055455 
L 348.60108 107.01 
L 348.60108 88.055455 
L 349.23704 105.746364 
L 349.23704 88.055455 
L 349.873 105.746364 
L 349.873 86.791818 
L 350.50896 105.746364 
L 350.50896 86.791818 
L 351.14492 105.746364 
L 351.14492 85.528182 
L 351.78088 105.746364 
L 351.78088 84.264545 
L 352.41684 105.746364 
L 365.13604 105.746364 
L 365.772 89.319091 
L 366.40796 89.319091 
L 367.04392 88.055455 
L 371.49564 88.055455 
L 372.1316 89.319091 
L 374.03948 89.319091 
L 374.67544 88.055455 
L 379.76312 88.055455 
L 380.39908 86.791818 
L 381.03504 86.791818 
L 381.671 100.691818 
L 381.671 85.528182 
L 382.30696 101.955455 
L 382.30696 85.528182 
L 382.94292 101.955455 
L 382.94292 85.528182 
L 383.57888 101.955455 
L 385.48676 101.955455 
L 386.12272 103.219091 
L 386.75868 103.219091 
L 387.39464 101.955455 
L 388.0306 101.955455 
L 388.66656 103.219091 
L 390.57444 103.219091 
L 393.75424 105.746364 
L 396.29808 53.937273 
L 396.93404 53.937273 
L 398.20596 51.41 
L 403.9296 51.41 
L 404.56556 105.746364 
L 404.56556 51.41 
L 405.20152 105.746364 
L 405.20152 51.41 
L 405.83748 50.146364 
L 409.65324 50.146364 
L 410.2892 51.41 
L 410.92516 51.41 
L 411.56112 93.11 
L 411.56112 51.41 
L 412.19708 93.11 
L 412.19708 51.41 
L 412.83304 93.11 
L 412.83304 51.41 
L 413.469 107.01 
L 413.469 51.41 
L 414.10496 105.746364 
L 414.10496 52.673636 
L 414.74092 105.746364 
L 414.74092 90.582727 
L 415.37688 90.582727 
L 416.01284 89.319091 
L 419.19264 89.319091 
L 419.8286 88.055455 
L 427.46012 88.055455 
L 428.09608 107.01 
L 428.09608 88.055455 
L 428.73204 105.746364 
L 428.73204 88.055455 
L 429.368 105.746364 
L 429.368 51.41 
L 430.00396 105.746364 
L 430.00396 51.41 
L 430.63992 105.746364 
L 430.63992 51.41 
L 440.17932 51.41 
L 440.81528 50.146364 
L 443.99508 50.146364 
L 444.63104 48.882727 
L 445.267 90.582727 
L 445.267 48.882727 
L 445.90296 90.582727 
L 445.90296 48.882727 
L 446.53892 89.319091 
L 446.53892 48.882727 
L 447.17488 89.319091 
L 447.81084 89.319091 
L 448.4468 88.055455 
L 449.08276 89.319091 
L 449.71872 88.055455 
L 450.99064 88.055455 
L 451.6266 89.319091 
L 453.53448 89.319091 
L 454.17044 88.055455 
L 458.62216 88.055455 
L 459.25812 86.791818 
L 460.53004 86.791818 
L 460.53004 48.882727 
L 461.166 86.791818 
L 461.166 50.146364 
L 461.80196 103.219091 
L 461.80196 50.146364 
L 462.43792 51.41 
L 473.8852 51.41 
L 475.15712 56.464545 
L 475.79308 57.728182 
L 475.79308 43.828182 
L 476.42904 57.728182 
L 476.42904 43.828182 
L 477.065 57.728182 
L 477.065 43.828182 
L 477.70096 57.728182 
L 477.70096 43.828182 
L 478.33692 56.464545 
L 478.33692 43.828182 
L 478.97288 55.200909 
L 479.60884 52.673636 
L 480.2448 51.41 
L 484.06056 51.41 
L 484.69652 105.746364 
L 484.69652 51.41 
L 485.33248 50.146364 
L 488.51228 50.146364 
L 489.14824 51.41 
L 491.69208 51.41 
L 492.32804 107.01 
L 492.32804 52.673636 
L 492.964 105.746364 
L 492.964 53.937273 
L 493.59996 105.746364 
L 493.59996 55.200909 
L 494.23592 105.746364 
L 494.23592 56.464545 
L 494.87188 105.746364 
L 495.50784 104.482727 
L 497.41572 104.482727 
L 498.05168 103.219091 
L 500.59552 103.219091 
L 506.31916 107.01 
L 507.59108 107.01 
L 508.22704 105.746364 
L 508.22704 48.882727 
L 508.863 105.746364 
L 508.863 48.882727 
L 509.49896 105.746364 
L 509.49896 50.146364 
L 510.13492 105.746364 
L 510.13492 50.146364 
L 512.67876 50.146364 
L 513.31472 51.41 
L 520.94624 51.41 
L 521.5822 50.146364 
L 524.12604 50.146364 
L 524.762 48.882727 
L 540.02504 48.882727 
L 540.661 50.146364 
L 544.47676 50.146364 
L 545.11272 51.41 
L 556.56 51.41 
L 556.56 51.41 
" clip-path="url(#pac3ee21371)" style="fill: none; stroke: #1f77b4; stroke-width: 2.25; stroke-linecap: round"/>
   </g>
   <g id="patch_3">
    <path d="M 79.59 111.18 
L 79.59 19.44 
" style="fill: none; stroke: #262626; stroke-width: 1.875; stroke-linejoin: miter; stroke-linecap: square"/>
   </g>
   <g id="patch_4">
    <path d="M 556.56 111.18 
L 556.56 19.44 
" style="fill: none; stroke: #262626; stroke-width: 1.875; stroke-linejoin: miter; stroke-linecap: square"/>
   </g>
   <g id="patch_5">
    <path d="M 79.59 111.18 
L 556.56 111.18 
" style="fill: none; stroke: #262626; stroke-width: 1.875; stroke-linejoin: miter; stroke-linecap: square"/>
   </g>
   <g id="patch_6">
    <path d="M 79.59 19.44 
L 556.56 19.44 
" style="fill: none; stroke: #262626; stroke-width: 1.875; stroke-linejoin: miter; stroke-linecap: square"/>
   </g>
  </g>
  <g id="axes_2">
   <g id="patch_7">
    <path d="M 79.59 272.7 
L 556.56 272.7 
L 556.56 180.96 
L 79.59 180.96 
z
" style="fill: #ffffff"/>
   </g>
   <g id="matplotlib.axis_3">
    <g id="xtick_9">
     <g id="line2d_13">
      <g>
       <use xlink:href="#m7abe6c4f0c" x="79.59" y="272.7" style="fill: #262626; stroke: #262626; stroke-width: 1.875"/>
      </g>
     </g>
     <g id="text_14">
      <text style="fill: #262626; font: 16.5px 'Arial', 'DejaVu Sans', 'Liberation Sans', 'Bitstream Vera Sans', sans-serif; text-anchor: middle" x="79.59" y="297.737422" transform="rotate(-0 79.59 297.737422)">0</text>
     </g>
    </g>
    <g id="xtick_10">
     <g id="line2d_14">
      <g>
       <use xlink:href="#m7abe6c4f0c" x="143.186" y="272.7" style="fill: #262626; stroke: #262626; stroke-width: 1.875"/>
      </g>
     </g>
     <g id="text_15">
      <text style="fill: #262626; font: 16.5px 'Arial', 'DejaVu Sans', 'Liberation Sans', 'Bitstream Vera Sans', sans-serif; text-anchor: middle" x="143.186" y="297.737422" transform="rotate(-0 143.186 297.737422)">2</text>
     </g>
    </g>
    <g id="xtick_11">
     <g id="line2d_15">
      <g>
       <use xlink:href="#m7abe6c4f0c" x="206.782" y="272.7" style="fill: #262626; stroke: #262626; stroke-width: 1.875"/>
      </g>
     </g>
     <g id="text_16">
      <text style="fill: #262626; font: 16.5px 'Arial', 'DejaVu Sans', 'Liberation Sans', 'Bitstream Vera Sans', sans-serif; text-anchor: middle" x="206.782" y="297.737422" transform="rotate(-0 206.782 297.737422)">4</text>
     </g>
    </g>
    <g id="xtick_12">
     <g id="line2d_16">
      <g>
       <use xlink:href="#m7abe6c4f0c" x="270.378" y="272.7" style="fill: #262626; stroke: #262626; stroke-width: 1.875"/>
      </g>
     </g>
     <g id="text_17">
      <text style="fill: #262626; font: 16.5px 'Arial', 'DejaVu Sans', 'Liberation Sans', 'Bitstream Vera Sans', sans-serif; text-anchor: middle" x="270.378" y="297.737422" transform="rotate(-0 270.378 297.737422)">6</text>
     </g>
    </g>
    <g id="xtick_13">
     <g id="line2d_17">
      <g>
       <use xlink:href="#m7abe6c4f0c" x="333.974" y="272.7" style="fill: #262626; stroke: #262626; stroke-width: 1.875"/>
      </g>
     </g>
     <g id="text_18">
      <text style="fill: #262626; font: 16.5px 'Arial', 'DejaVu Sans', 'Liberation Sans', 'Bitstream Vera Sans', sans-serif; text-anchor: middle" x="333.974" y="297.737422" transform="rotate(-0 333.974 297.737422)">8</text>
     </g>
    </g>
    <g id="xtick_14">
     <g id="line2d_18">
      <g>
       <use xlink:href="#m7abe6c4f0c" x="397.57" y="272.7" style="fill: #262626; stroke: #262626; stroke-width: 1.875"/>
      </g>
     </g>
     <g id="text_19">
      <text style="fill: #262626; font: 16.5px 'Arial', 'DejaVu Sans', 'Liberation Sans', 'Bitstream Vera Sans', sans-serif; text-anchor: middle" x="397.57" y="297.737422" transform="rotate(-0 397.57 297.737422)">10</text>
     </g>
    </g>
    <g id="xtick_15">
     <g id="line2d_19">
      <g>
       <use xlink:href="#m7abe6c4f0c" x="461.166" y="272.7" style="fill: #262626; stroke: #262626; stroke-width: 1.875"/>
      </g>
     </g>
     <g id="text_20">
      <text style="fill: #262626; font: 16.5px 'Arial', 'DejaVu Sans', 'Liberation Sans', 'Bitstream Vera Sans', sans-serif; text-anchor: middle" x="461.166" y="297.737422" transform="rotate(-0 461.166 297.737422)">12</text>
     </g>
    </g>
    <g id="xtick_16">
     <g id="line2d_20">
      <g>
       <use xlink:href="#m7abe6c4f0c" x="524.762" y="272.7" style="fill: #262626; stroke: #262626; stroke-width: 1.875"/>
      </g>
     </g>
     <g id="text_21">
      <text style="fill: #262626; font: 16.5px 'Arial', 'DejaVu Sans', 'Liberation Sans', 'Bitstream Vera Sans', sans-serif; text-anchor: middle" x="524.762" y="297.737422" transform="rotate(-0 524.762 297.737422)">14</text>
     </g>
    </g>
    <g id="text_22">
     <text style="fill: #262626; font: 18px 'Arial', 'DejaVu Sans', 'Liberation Sans', 'Bitstream Vera Sans', sans-serif; text-anchor: middle" x="318.075" y="318.846094" transform="rotate(-0 318.075 318.846094)">time (s)</text>
    </g>
   </g>
   <g id="matplotlib.axis_4">
    <g id="ytick_4">
     <g id="line2d_21">
      <g>
       <use xlink:href="#m17d97490da" x="79.59" y="272.570023" style="fill: #262626; stroke: #262626; stroke-width: 1.875"/>
      </g>
     </g>
     <g id="text_23">
      <text style="fill: #262626; font: 16.5px 'Arial', 'DejaVu Sans', 'Liberation Sans', 'Bitstream Vera Sans', sans-serif; text-anchor: end" x="67.09" y="278.838734" transform="rotate(-0 67.09 278.838734)">0.0</text>
     </g>
    </g>
    <g id="ytick_5">
     <g id="line2d_22">
      <g>
       <use xlink:href="#m17d97490da" x="79.59" y="191.856319" style="fill: #262626; stroke: #262626; stroke-width: 1.875"/>
      </g>
     </g>
     <g id="text_24">
      <text style="fill: #262626; font: 16.5px 'Arial', 'DejaVu Sans', 'Liberation Sans', 'Bitstream Vera Sans', sans-serif; text-anchor: end" x="67.09" y="198.12503" transform="rotate(-0 67.09 198.12503)">0.2</text>
     </g>
    </g>
    <g id="text_25">
     <text style="fill: #262626; font: 18px 'Arial', 'DejaVu Sans', 'Liberation Sans', 'Bitstream Vera Sans', sans-serif; text-anchor: middle" x="33.106406" y="226.83" transform="rotate(-90 33.106406 226.83)">pw</text>
    </g>
   </g>
   <g id="line2d_23">
    <path d="M 80.22596 267.718265 
L 80.86192 268.310604 
L 81.49788 268.162194 
L 82.13384 268.17987 
L 89.76536 268.52293 
L 90.40132 268.212177 
L 91.67324 267.312184 
L 92.3092 266.697126 
L 93.58112 264.958916 
L 94.21708 263.210323 
L 94.85304 259.967364 
L 96.12496 250.26072 
L 96.76092 244.14102 
L 98.03284 229.009995 
L 100.57668 193.331438 
L 101.21264 189.054536 
L 101.8486 187.138853 
L 102.48456 185.925735 
L 103.12052 185.434531 
L 103.75648 185.13 
L 104.39244 186.555291 
L 105.66436 191.832019 
L 106.30032 195.152165 
L 106.93628 202.290158 
L 109.48012 239.355817 
L 110.75204 254.019396 
L 111.388 260.034463 
L 112.02396 264.281258 
L 112.65992 267.669439 
L 112.65992 266.422835 
L 113.29588 266.018148 
L 113.29588 268.147162 
L 113.93184 265.464307 
L 115.20376 264.410282 
L 115.83972 263.526112 
L 116.47568 263.654033 
L 117.7476 268.130722 
L 120.9274 268.279673 
L 124.74316 267.963042 
L 125.37912 267.365465 
L 125.37912 268.325326 
L 126.01508 268.382066 
L 126.65104 263.555656 
L 127.287 256.349961 
L 128.55892 237.550877 
L 129.83084 216.766307 
L 130.4668 209.339774 
L 131.10276 207.345237 
L 131.73872 210.263175 
L 133.6466 225.971203 
L 134.28256 228.544794 
L 134.91852 229.100523 
L 135.55448 228.22834 
L 136.19044 225.629782 
L 136.8264 222.074274 
L 137.46236 217.513096 
L 139.37024 199.592674 
L 140.0062 196.711679 
L 140.64216 197.742139 
L 141.27812 203.614414 
L 141.91408 214.716978 
L 143.186 240.760582 
L 143.82196 250.786122 
L 144.45792 266.793478 
L 144.45792 258.152551 
L 145.09388 266.496089 
L 145.09388 262.973209 
L 145.72984 266.083148 
L 146.3658 265.565348 
L 146.3658 267.163815 
L 147.00176 266.228676 
L 147.00176 267.307184 
L 147.63772 266.366727 
L 147.63772 267.529601 
L 148.27368 266.40144 
L 148.27368 268.37414 
L 148.90964 266.60343 
L 149.5456 266.950944 
L 150.18156 267.480272 
L 150.81752 267.05525 
L 151.45348 266.884195 
L 152.08944 266.585373 
L 152.7254 265.513282 
L 153.36136 265.975741 
L 153.99732 267.607358 
L 156.54116 266.228824 
L 156.54116 266.61414 
L 157.17712 263.928872 
L 157.17712 263.126181 
L 157.81308 263.401808 
L 158.44904 263.099662 
L 158.44904 253.084721 
L 159.085 263.307678 
L 159.085 246.279653 
L 160.99288 223.909153 
L 161.62884 218.784753 
L 162.2648 215.575418 
L 162.90076 214.1706 
L 163.53672 213.879941 
L 164.17268 213.991858 
L 166.71652 216.410295 
L 167.35248 217.276648 
L 167.98844 218.34585 
L 168.6244 219.882852 
L 169.26036 220.664714 
L 169.89632 221.800525 
L 170.53228 224.098619 
L 171.8042 232.427266 
L 172.44016 264.651941 
L 172.44016 238.548067 
L 173.07612 263.70696 
L 173.07612 245.323218 
L 173.71208 261.938822 
L 173.71208 251.714153 
L 174.34804 258.838482 
L 174.34804 257.852891 
L 174.984 254.113956 
L 174.984 263.153597 
L 175.61996 248.525803 
L 178.1638 218.633441 
L 180.07168 193.887777 
L 180.70764 189.340514 
L 181.3436 187.316312 
L 181.97956 185.792848 
L 182.61552 185.197985 
L 183.25148 185.161998 
L 183.88744 186.443669 
L 185.15936 191.694574 
L 185.79532 195.265416 
L 186.43128 202.322829 
L 187.7032 221.041852 
L 188.33916 231.342222 
L 189.61108 247.967472 
L 190.883 261.76636 
L 190.883 266.896171 
L 191.51896 265.603 
L 191.51896 262.704898 
L 192.15492 267.979903 
L 192.15492 267.757305 
L 192.15492 257.201504 
L 192.79088 266.436007 
L 192.79088 250.358218 
L 194.69876 228.571493 
L 195.33472 223.371383 
L 195.97068 220.411073 
L 196.60664 219.215995 
L 197.2426 219.077016 
L 197.87856 219.581919 
L 198.51452 220.726011 
L 199.15048 222.34948 
L 200.4224 226.609394 
L 201.05836 229.259425 
L 202.33028 236.032774 
L 203.6022 242.696865 
L 204.87412 251.009195 
L 205.51008 255.430202 
L 206.14604 262.345732 
L 206.14604 259.305188 
L 206.782 254.802075 
L 206.782 262.659267 
L 207.41796 246.105288 
L 209.9618 210.140516 
L 210.59776 208.391726 
L 211.23372 211.206117 
L 213.1416 225.87186 
L 213.77756 228.724083 
L 214.41352 229.509449 
L 215.04948 228.428241 
L 215.68544 225.647592 
L 216.3214 221.868046 
L 216.95736 217.145443 
L 217.59332 211.34976 
L 218.86524 197.94762 
L 219.5012 194.457069 
L 220.13716 195.333867 
L 220.77312 201.149629 
L 222.04504 225.688645 
L 222.04504 254.040998 
L 222.681 239.626859 
L 222.681 247.356475 
L 223.31696 251.99263 
L 223.31696 240.436836 
L 223.95292 260.944408 
L 223.95292 233.627319 
L 224.58888 266.225946 
L 224.58888 227.642886 
L 225.22484 223.160401 
L 225.8608 220.812584 
L 226.49676 220.402525 
L 227.13272 221.386796 
L 227.76868 222.856732 
L 229.0406 226.603711 
L 229.67656 227.4848 
L 230.31252 227.679565 
L 230.94848 227.053759 
L 232.2204 225.356595 
L 232.85636 225.183373 
L 233.49232 226.245534 
L 234.12828 229.918286 
L 234.76424 236.134702 
L 235.4002 244.444691 
L 236.03616 266.357011 
L 236.03616 248.804739 
L 236.67212 263.400748 
L 236.67212 249.965722 
L 237.30808 262.439467 
L 237.30808 248.776387 
L 237.30808 250.824315 
L 237.94404 262.390205 
L 237.94404 247.203741 
L 237.94404 252.25892 
L 238.58 262.743716 
L 238.58 246.96279 
L 238.58 253.801039 
L 239.21596 248.338374 
L 239.21596 255.031605 
L 239.85192 264.649799 
L 239.85192 248.473511 
L 240.48788 243.546304 
L 241.7598 225.595529 
L 242.39576 219.665679 
L 243.03172 216.299232 
L 243.66768 214.706534 
L 244.30364 214.714865 
L 246.84748 217.273316 
L 247.48344 218.362147 
L 248.1194 219.871835 
L 249.39132 221.533794 
L 250.02728 223.647289 
L 251.2992 231.266183 
L 251.93516 237.061113 
L 252.57112 266.097247 
L 252.57112 243.700031 
L 253.20708 266.502643 
L 253.20708 250.24756 
L 253.84304 266.971551 
L 253.84304 256.663267 
L 254.479 267.486178 
L 254.479 262.069646 
L 255.11496 266.398246 
L 257.6588 267.761837 
L 258.29476 266.977684 
L 258.93072 266.667907 
L 260.20264 267.953787 
L 261.47456 266.221376 
L 262.74648 265.320271 
L 263.38244 265.275121 
L 264.0184 265.470897 
L 264.65436 267.865672 
L 264.65436 265.867068 
L 265.29032 267.491776 
L 265.29032 266.86823 
L 265.92628 267.854702 
L 266.56224 268.462709 
L 267.83416 266.866945 
L 267.83416 267.169794 
L 268.47012 265.072937 
L 268.47012 267.071804 
L 269.10608 263.965903 
L 269.10608 267.509584 
L 269.74204 263.720659 
L 269.74204 268.486168 
L 269.74204 268.223497 
L 270.378 264.596546 
L 270.378 265.70367 
L 271.01396 265.552784 
L 271.01396 262.065153 
L 271.64992 267.241319 
L 271.64992 256.926811 
L 272.92184 243.092798 
L 274.19376 229.121428 
L 274.82972 223.977319 
L 275.46568 220.716149 
L 276.10164 219.267956 
L 276.7376 219.053859 
L 277.37356 219.55056 
L 278.00952 220.679536 
L 278.64548 222.313805 
L 279.9174 226.539099 
L 280.55336 229.163643 
L 283.73316 246.468618 
L 284.36912 250.794878 
L 285.00508 268.129028 
L 285.00508 255.166236 
L 285.64104 267.728477 
L 285.64104 259.06636 
L 286.277 262.41096 
L 286.91296 265.025184 
L 287.54892 267.140502 
L 291.36468 268.300218 
L 292.00064 266.986057 
L 292.6366 266.064701 
L 293.27256 266.423642 
L 293.90852 266.071386 
L 294.54448 264.845404 
L 295.18044 263.907283 
L 295.8164 264.99833 
L 296.45236 267.718842 
L 298.36024 268.0795 
L 299.63216 261.582505 
L 299.63216 268.311115 
L 300.26812 259.692034 
L 300.26812 264.979878 
L 300.90408 259.957887 
L 301.54004 262.4893 
L 301.54004 253.959738 
L 302.176 264.742694 
L 302.176 247.376785 
L 304.08388 227.831976 
L 304.71984 223.396271 
L 305.3558 221.080822 
L 305.99176 220.768045 
L 306.62772 221.643716 
L 307.26368 223.082445 
L 308.5356 226.596037 
L 309.17156 227.432942 
L 309.80752 227.679736 
L 310.44348 227.151979 
L 311.7154 225.36133 
L 312.35136 225.088448 
L 312.98732 225.792544 
L 313.62328 227.875816 
L 314.25924 231.599067 
L 314.8952 237.053484 
L 317.43904 263.923478 
L 318.075 267.439555 
L 323.16268 268.53 
L 324.4346 261.76165 
L 325.07056 260.788424 
L 326.34248 261.933706 
L 326.97844 263.238142 
L 328.25036 267.543958 
L 332.70208 266.844056 
L 332.70208 263.122765 
L 333.33804 262.466283 
L 333.33804 259.648173 
L 333.974 262.169573 
L 333.974 257.61102 
L 334.60996 263.964327 
L 334.60996 255.030533 
L 335.24592 263.545134 
L 335.24592 250.251163 
L 337.78976 219.921623 
L 338.42572 215.261913 
L 339.06168 214.01116 
L 339.69764 215.326615 
L 340.96956 218.581209 
L 341.60552 219.430074 
L 344.14936 221.29752 
L 344.78532 222.202349 
L 345.42128 223.617704 
L 346.05724 225.495318 
L 347.32916 232.108966 
L 347.96512 236.459568 
L 348.60108 261.65866 
L 348.60108 242.665331 
L 349.23704 262.335167 
L 349.23704 249.793465 
L 349.873 261.354839 
L 349.873 256.266745 
L 350.50896 261.65525 
L 351.14492 262.958932 
L 351.14492 265.717879 
L 351.78088 264.705648 
L 351.78088 268.505057 
L 352.41684 266.368084 
L 365.13604 267.954091 
L 365.772 266.288463 
L 366.40796 262.601819 
L 367.04392 257.213969 
L 369.58776 231.168945 
L 370.22372 226.328629 
L 370.85968 223.016174 
L 371.49564 221.380099 
L 372.76756 220.188579 
L 374.03948 220.559701 
L 374.67544 220.633345 
L 375.94736 219.653777 
L 376.58332 219.589744 
L 377.21928 220.445492 
L 377.85524 222.623533 
L 378.4912 227.074888 
L 379.76312 242.155186 
L 381.03504 255.792463 
L 381.671 267.074249 
L 381.671 260.839232 
L 382.30696 266.355064 
L 382.30696 264.795429 
L 382.94292 264.460136 
L 382.94292 267.63998 
L 383.57888 262.684504 
L 384.21484 262.093514 
L 384.8508 262.668213 
L 385.48676 263.785445 
L 386.75868 266.537279 
L 387.39464 266.907533 
L 388.66656 265.577242 
L 389.30252 265.58349 
L 389.93848 266.427729 
L 390.57444 268.0059 
L 393.75424 268.26507 
L 396.29808 266.304354 
L 396.93404 262.22786 
L 397.57 256.825394 
L 398.84192 242.880055 
L 400.11384 228.649926 
L 400.7498 223.323651 
L 401.38576 219.66666 
L 402.02172 218.021383 
L 402.65768 217.831728 
L 403.9296 219.594509 
L 404.56556 260.64611 
L 404.56556 220.411888 
L 405.20152 259.983244 
L 405.20152 220.654162 
L 405.83748 220.295761 
L 407.1094 218.674461 
L 407.74536 217.630489 
L 408.38132 217.243714 
L 409.01728 217.512218 
L 409.65324 219.238386 
L 410.2892 222.96265 
L 410.92516 228.558528 
L 411.56112 265.34079 
L 411.56112 235.41671 
L 412.19708 260.805098 
L 412.19708 243.070753 
L 412.83304 256.616873 
L 412.83304 250.897508 
L 413.469 260.510225 
L 413.469 253.585935 
L 413.469 257.927578 
L 414.10496 264.371813 
L 414.10496 250.436625 
L 414.10496 263.569156 
L 414.74092 263.329155 
L 414.74092 245.601893 
L 415.37688 240.234127 
L 417.28476 220.212747 
L 417.92072 216.287058 
L 418.55668 214.472831 
L 419.19264 215.205322 
L 419.8286 217.079946 
L 420.46456 218.545515 
L 421.10052 219.383591 
L 422.37244 220.492781 
L 423.64436 221.292816 
L 424.28032 221.805714 
L 424.91628 223.265221 
L 425.55224 225.42455 
L 426.1882 228.162574 
L 426.82416 231.53184 
L 427.46012 236.880524 
L 428.09608 260.017153 
L 428.09608 243.701287 
L 428.73204 261.315918 
L 428.73204 250.875094 
L 429.368 259.306485 
L 429.368 257.656763 
L 429.368 261.684719 
L 430.00396 258.308796 
L 430.00396 263.23659 
L 430.00396 255.772722 
L 430.63992 260.190175 
L 430.63992 267.070265 
L 430.63992 249.023976 
L 431.91184 234.42171 
L 432.5478 228.175065 
L 433.18376 223.311284 
L 433.81972 219.665484 
L 434.45568 217.864498 
L 435.09164 217.157397 
L 436.36356 216.835486 
L 438.27144 217.158979 
L 438.9074 217.426694 
L 439.54336 217.910856 
L 440.17932 219.111237 
L 440.81528 221.001283 
L 441.45124 223.795646 
L 442.0872 228.031058 
L 443.35912 239.265418 
L 444.63104 252.326107 
L 445.267 264.458298 
L 445.267 257.856601 
L 445.90296 260.774644 
L 445.90296 262.652467 
L 446.53892 256.529663 
L 446.53892 266.445021 
L 447.17488 251.133675 
L 449.71872 228.036734 
L 450.35468 223.876598 
L 450.99064 221.52192 
L 451.6266 220.553945 
L 452.26256 220.067646 
L 453.53448 220.579338 
L 454.17044 220.592156 
L 456.07832 219.262657 
L 456.71428 219.83866 
L 457.35024 221.952215 
L 457.9862 226.47737 
L 458.62216 233.5516 
L 459.89408 249.339687 
L 460.53004 256.104739 
L 460.53004 265.896403 
L 461.166 261.83115 
L 461.80196 267.442512 
L 461.80196 256.694251 
L 463.07388 244.30106 
L 464.3458 232.12562 
L 464.98176 227.448269 
L 465.61772 224.001262 
L 466.25368 222.025375 
L 466.88964 221.238687 
L 467.5256 220.830858 
L 468.79752 220.603466 
L 471.34136 221.240348 
L 471.97732 222.196496 
L 472.61328 224.813596 
L 473.24924 229.742744 
L 474.52116 244.313609 
L 475.15712 247.132819 
L 475.79308 247.281752 
L 475.79308 253.733198 
L 476.42904 246.444331 
L 476.42904 253.267158 
L 477.065 246.196519 
L 477.065 252.832976 
L 477.70096 246.36574 
L 477.70096 252.358499 
L 478.33692 247.267345 
L 478.33692 252.891778 
L 478.97288 246.105838 
L 479.60884 241.153286 
L 480.88076 224.723239 
L 481.51672 220.262506 
L 482.15268 218.470958 
L 482.78864 218.734511 
L 484.06056 220.405987 
L 484.69652 260.400853 
L 484.69652 220.643128 
L 485.33248 220.294316 
L 486.6044 218.669834 
L 487.24036 217.598706 
L 487.87632 217.025437 
L 488.51228 217.304203 
L 489.14824 218.924415 
L 489.7842 222.324784 
L 490.42016 227.80765 
L 491.69208 242.805786 
L 492.32804 265.417205 
L 492.32804 250.65737 
L 492.964 263.408169 
L 492.964 257.53021 
L 493.59996 262.818466 
L 493.59996 262.783379 
L 494.23592 262.238522 
L 494.23592 266.586797 
L 494.87188 262.24211 
L 495.50784 262.970457 
L 496.1438 262.662657 
L 496.77976 263.672139 
L 497.41572 263.763492 
L 498.05168 264.550643 
L 498.68764 265.870719 
L 499.3236 266.857649 
L 500.59552 268.153664 
L 506.31916 265.849066 
L 506.95512 263.790571 
L 507.59108 259.807229 
L 508.22704 257.807125 
L 508.22704 265.557493 
L 508.863 255.093656 
L 508.863 261.12442 
L 509.49896 255.347823 
L 509.49896 255.361384 
L 510.13492 257.238551 
L 510.13492 248.619479 
L 511.40684 234.352303 
L 512.0428 228.201817 
L 512.67876 223.538221 
L 513.31472 220.174643 
L 513.95068 218.184546 
L 514.58664 217.200558 
L 515.2226 216.954429 
L 515.85856 216.834771 
L 517.76644 217.143724 
L 518.4024 217.422262 
L 519.03836 217.887965 
L 519.67432 218.813512 
L 520.31028 220.670603 
L 520.94624 223.704679 
L 521.5822 227.936894 
L 522.21816 233.199133 
L 524.762 258.518297 
L 525.39796 263.241899 
L 526.03392 266.878891 
L 539.38908 268.389624 
L 540.02504 265.532809 
L 540.661 261.629366 
L 541.93292 250.763773 
L 543.8408 232.556593 
L 544.47676 227.902747 
L 545.11272 224.514871 
L 545.74868 222.337565 
L 546.38464 221.276654 
L 547.0206 220.832759 
L 548.29252 220.602508 
L 550.83636 221.192775 
L 551.47232 221.593947 
L 552.10828 222.740423 
L 552.74424 224.967239 
L 553.3802 228.462105 
L 554.01616 233.283283 
L 555.28808 245.725972 
L 556.56 258.471439 
L 556.56 258.471439 
" clip-path="url(#pd3966e0830)" style="fill: none; stroke: #1f77b4; stroke-width: 2.25; stroke-linecap: round"/>
   </g>
   <g id="patch_8">
    <path d="M 79.59 272.7 
L 79.59 180.96 
" style="fill: none; stroke: #262626; stroke-width: 1.875; stroke-linejoin: miter; stroke-linecap: square"/>
   </g>
   <g id="patch_9">
    <path d="M 556.56 272.7 
L 556.56 180.96 
" style="fill: none; stroke: #262626; stroke-width: 1.875; stroke-linejoin: miter; stroke-linecap: square"/>
   </g>
   <g id="patch_10">
    <path d="M 79.59 272.7 
L 556.56 272.7 
" style="fill: none; stroke: #262626; stroke-width: 1.875; stroke-linejoin: miter; stroke-linecap: square"/>
   </g>
   <g id="patch_11">
    <path d="M 79.59 180.96 
L 556.56 180.96 
" style="fill: none; stroke: #262626; stroke-width: 1.875; stroke-linejoin: miter; stroke-linecap: square"/>
   </g>
  </g>
  <g id="axes_3">
   <g id="patch_12">
    <path d="M 79.59 434.22 
L 556.56 434.22 
L 556.56 342.48 
L 79.59 342.48 
z
" style="fill: #ffffff"/>
   </g>
   <g id="matplotlib.axis_5">
    <g id="xtick_17">
     <g id="line2d_24">
      <g>
       <use xlink:href="#m7abe6c4f0c" x="79.59" y="434.22" style="fill: #262626; stroke: #262626; stroke-width: 1.875"/>
      </g>
     </g>
     <g id="text_26">
      <text style="fill: #262626; font: 16.5px 'Arial', 'DejaVu Sans', 'Liberation Sans', 'Bitstream Vera Sans', sans-serif; text-anchor: middle" x="79.59" y="459.257422" transform="rotate(-0 79.59 459.257422)">0</text>
     </g>
    </g>
    <g id="xtick_18">
     <g id="line2d_25">
      <g>
       <use xlink:href="#m7abe6c4f0c" x="143.186" y="434.22" style="fill: #262626; stroke: #262626; stroke-width: 1.875"/>
      </g>
     </g>
     <g id="text_27">
      <text style="fill: #262626; font: 16.5px 'Arial', 'DejaVu Sans', 'Liberation Sans', 'Bitstream Vera Sans', sans-serif; text-anchor: middle" x="143.186" y="459.257422" transform="rotate(-0 143.186 459.257422)">2</text>
     </g>
    </g>
    <g id="xtick_19">
     <g id="line2d_26">
      <g>
       <use xlink:href="#m7abe6c4f0c" x="206.782" y="434.22" style="fill: #262626; stroke: #262626; stroke-width: 1.875"/>
      </g>
     </g>
     <g id="text_28">
      <text style="fill: #262626; font: 16.5px 'Arial', 'DejaVu Sans', 'Liberation Sans', 'Bitstream Vera Sans', sans-serif; text-anchor: middle" x="206.782" y="459.257422" transform="rotate(-0 206.782 459.257422)">4</text>
     </g>
    </g>
    <g id="xtick_20">
     <g id="line2d_27">
      <g>
       <use xlink:href="#m7abe6c4f0c" x="270.378" y="434.22" style="fill: #262626; stroke: #262626; stroke-width: 1.875"/>
      </g>
     </g>
     <g id="text_29">
      <text style="fill: #262626; font: 16.5px 'Arial', 'DejaVu Sans', 'Liberation Sans', 'Bitstream Vera Sans', sans-serif; text-anchor: middle" x="270.378" y="459.257422" transform="rotate(-0 270.378 459.257422)">6</text>
     </g>
    </g>
    <g id="xtick_21">
     <g id="line2d_28">
      <g>
       <use xlink:href="#m7abe6c4f0c" x="333.974" y="434.22" style="fill: #262626; stroke: #262626; stroke-width: 1.875"/>
      </g>
     </g>
     <g id="text_30">
      <text style="fill: #262626; font: 16.5px 'Arial', 'DejaVu Sans', 'Liberation Sans', 'Bitstream Vera Sans', sans-serif; text-anchor: middle" x="333.974" y="459.257422" transform="rotate(-0 333.974 459.257422)">8</text>
     </g>
    </g>
    <g id="xtick_22">
     <g id="line2d_29">
      <g>
       <use xlink:href="#m7abe6c4f0c" x="397.57" y="434.22" style="fill: #262626; stroke: #262626; stroke-width: 1.875"/>
      </g>
     </g>
     <g id="text_31">
      <text style="fill: #262626; font: 16.5px 'Arial', 'DejaVu Sans', 'Liberation Sans', 'Bitstream Vera Sans', sans-serif; text-anchor: middle" x="397.57" y="459.257422" transform="rotate(-0 397.57 459.257422)">10</text>
     </g>
    </g>
    <g id="xtick_23">
     <g id="line2d_30">
      <g>
       <use xlink:href="#m7abe6c4f0c" x="461.166" y="434.22" style="fill: #262626; stroke: #262626; stroke-width: 1.875"/>
      </g>
     </g>
     <g id="text_32">
      <text style="fill: #262626; font: 16.5px 'Arial', 'DejaVu Sans', 'Liberation Sans', 'Bitstream Vera Sans', sans-serif; text-anchor: middle" x="461.166" y="459.257422" transform="rotate(-0 461.166 459.257422)">12</text>
     </g>
    </g>
    <g id="xtick_24">
     <g id="line2d_31">
      <g>
       <use xlink:href="#m7abe6c4f0c" x="524.762" y="434.22" style="fill: #262626; stroke: #262626; stroke-width: 1.875"/>
      </g>
     </g>
     <g id="text_33">
      <text style="fill: #262626; font: 16.5px 'Arial', 'DejaVu Sans', 'Liberation Sans', 'Bitstream Vera Sans', sans-serif; text-anchor: middle" x="524.762" y="459.257422" transform="rotate(-0 524.762 459.257422)">14</text>
     </g>
    </g>
    <g id="text_34">
     <text style="fill: #262626; font: 18px 'Arial', 'DejaVu Sans', 'Liberation Sans', 'Bitstream Vera Sans', sans-serif; text-anchor: middle" x="318.075" y="480.366094" transform="rotate(-0 318.075 480.366094)">time (s)</text>
    </g>
   </g>
   <g id="matplotlib.axis_6">
    <g id="ytick_6">
     <g id="line2d_32">
      <g>
       <use xlink:href="#m17d97490da" x="79.59" y="402.036999" style="fill: #262626; stroke: #262626; stroke-width: 1.875"/>
      </g>
     </g>
     <g id="text_35">
      <text style="fill: #262626; font: 16.5px 'Arial', 'DejaVu Sans', 'Liberation Sans', 'Bitstream Vera Sans', sans-serif; text-anchor: end" x="67.09" y="408.30571" transform="rotate(-0 67.09 408.30571)">5</text>
     </g>
    </g>
    <g id="ytick_7">
     <g id="line2d_33">
      <g>
       <use xlink:href="#m17d97490da" x="79.59" y="359.060638" style="fill: #262626; stroke: #262626; stroke-width: 1.875"/>
      </g>
     </g>
     <g id="text_36">
      <text style="fill: #262626; font: 16.5px 'Arial', 'DejaVu Sans', 'Liberation Sans', 'Bitstream Vera Sans', sans-serif; text-anchor: end" x="67.09" y="365.329349" transform="rotate(-0 67.09 365.329349)">10</text>
     </g>
    </g>
    <g id="text_37">
     <text style="fill: #262626; font: 18px 'Arial', 'DejaVu Sans', 'Liberation Sans', 'Bitstream Vera Sans', sans-serif; text-anchor: middle" x="38.350313" y="388.35" transform="rotate(-90 38.350313 388.35)">bw</text>
    </g>
   </g>
   <g id="line2d_34">
    <path d="M 80.22596 401.969874 
L 80.86192 405.54366 
L 81.49788 408.16626 
L 82.13384 405.56233 
L 90.40132 409.012796 
L 91.67324 397.947724 
L 92.94516 405.691195 
L 93.58112 406.140238 
L 94.21708 403.068065 
L 94.85304 402.765549 
L 95.489 403.026582 
L 96.12496 404.668955 
L 96.76092 404.606581 
L 98.03284 397.889261 
L 98.6688 397.682417 
L 99.94072 397.979654 
L 100.57668 399.296607 
L 101.21264 400.18792 
L 101.8486 401.519368 
L 102.48456 403.126669 
L 103.12052 405.122124 
L 103.75648 405.638801 
L 104.39244 403.290542 
L 105.0284 402.108709 
L 105.66436 401.869019 
L 106.30032 402.027027 
L 106.93628 401.213722 
L 107.57224 398.365498 
L 108.2082 393.57284 
L 108.84416 389.846551 
L 109.48012 387.960055 
L 110.11608 387.925391 
L 110.75204 406.257025 
L 112.02396 406.155859 
L 112.65992 408.038591 
L 112.65992 406.705381 
L 113.29588 410.979565 
L 113.29588 405.402132 
L 113.93184 414.217411 
L 114.5678 415.147045 
L 115.20376 416.467963 
L 116.47568 428.609678 
L 117.11164 422.062458 
L 117.7476 422.542607 
L 120.29144 385.548698 
L 120.9274 384.878792 
L 124.74316 420.19912 
L 125.37912 374.956078 
L 125.37912 416.407501 
L 126.01508 426.442188 
L 126.65104 376.336878 
L 127.287 388.377517 
L 127.92296 394.328066 
L 128.55892 395.186751 
L 129.19488 394.958929 
L 129.83084 396.584752 
L 130.4668 399.696228 
L 131.10276 399.477961 
L 131.73872 397.125995 
L 132.37468 396.661675 
L 133.01064 397.818293 
L 133.6466 402.740155 
L 134.28256 408.549763 
L 134.91852 410.662719 
L 135.55448 410.495705 
L 136.19044 409.481098 
L 136.8264 408.694067 
L 137.46236 406.669544 
L 138.09832 404.253521 
L 138.73428 400.79071 
L 140.64216 394.583331 
L 141.27812 393.525236 
L 141.91408 392.161157 
L 143.186 389.184581 
L 143.82196 383.335163 
L 144.45792 420.447071 
L 144.45792 407.25383 
L 145.09388 420.447803 
L 145.09388 408.002738 
L 145.72984 420.133532 
L 145.72984 408.845091 
L 146.3658 419.493103 
L 146.3658 407.052477 
L 147.00176 418.435558 
L 147.00176 402.996359 
L 147.63772 417.661254 
L 147.63772 396.522492 
L 148.27368 413.186563 
L 148.27368 385.921152 
L 148.90964 414.7415 
L 149.5456 414.316806 
L 150.18156 410.160998 
L 150.81752 411.347751 
L 151.45348 412.106673 
L 152.08944 413.518016 
L 152.7254 418.094654 
L 153.36136 418.769556 
L 153.99732 422.701515 
L 156.54116 407.304346 
L 156.54116 363.162271 
L 157.17712 411.29642 
L 157.17712 360.031446 
L 157.81308 392.473768 
L 158.44904 395.195161 
L 158.44904 355.548767 
L 159.085 394.311856 
L 159.085 368.631119 
L 159.72096 379.983817 
L 160.35692 388.478358 
L 160.99288 394.301989 
L 161.62884 397.44325 
L 162.2648 399.456596 
L 162.90076 400.526976 
L 163.53672 400.667624 
L 164.17268 400.364713 
L 164.80864 399.562148 
L 165.4446 399.249023 
L 166.08056 399.671076 
L 167.35248 401.407506 
L 167.98844 401.853787 
L 168.6244 401.237171 
L 169.26036 400.811939 
L 169.89632 399.825852 
L 170.53228 398.273242 
L 171.8042 392.755147 
L 172.44016 397.907518 
L 172.44016 388.797477 
L 173.07612 399.043482 
L 173.07612 383.876231 
L 173.71208 404.016968 
L 173.71208 378.268263 
L 174.34804 404.906403 
L 174.34804 374.396154 
L 174.984 406.52984 
L 174.984 372.559894 
L 175.61996 407.486401 
L 176.25592 406.585982 
L 176.89188 404.809871 
L 177.52784 402.063841 
L 178.1638 400.226271 
L 178.79976 399.628976 
L 179.43572 398.719253 
L 180.70764 400.560886 
L 181.97956 403.161211 
L 182.61552 404.862286 
L 183.25148 405.580212 
L 183.88744 403.528596 
L 184.5234 402.026857 
L 185.15936 401.503617 
L 185.79532 401.607671 
L 186.43128 400.980613 
L 187.06724 397.693661 
L 188.97512 385.482084 
L 189.61108 397.282074 
L 190.24704 403.681672 
L 190.883 401.712973 
L 190.883 370.505167 
L 191.51896 400.387045 
L 191.51896 373.891502 
L 192.15492 404.843101 
L 192.15492 401.506421 
L 192.15492 379.297295 
L 192.79088 412.572814 
L 192.79088 384.543259 
L 194.0628 393.295542 
L 194.69876 396.77631 
L 195.33472 398.615094 
L 195.97068 398.850513 
L 196.60664 398.290116 
L 197.2426 398.123062 
L 197.87856 398.640261 
L 200.4224 401.644539 
L 201.05836 401.819216 
L 201.69432 400.671018 
L 203.6022 395.780869 
L 204.23816 394.717575 
L 205.51008 391.308149 
L 206.14604 380.282554 
L 206.14604 391.651582 
L 206.782 381.172408 
L 206.782 395.665903 
L 207.41796 388.379933 
L 208.05392 392.192158 
L 208.68988 395.024838 
L 209.32584 396.692593 
L 209.9618 400.00123 
L 210.59776 400.677983 
L 211.23372 397.805875 
L 211.86968 396.561596 
L 212.50564 397.959353 
L 213.77756 408.267792 
L 214.41352 410.35596 
L 215.04948 410.520549 
L 216.3214 408.465923 
L 217.59332 404.242958 
L 218.22928 401.237619 
L 218.86524 398.940363 
L 219.5012 396.202099 
L 220.13716 394.680506 
L 220.77312 393.978 
L 221.40908 391.573007 
L 222.04504 389.790276 
L 222.04504 387.790319 
L 222.681 392.561293 
L 222.681 388.756952 
L 223.31696 408.533275 
L 223.31696 390.7084 
L 223.95292 410.987602 
L 223.95292 392.865745 
L 224.58888 407.2131 
L 224.58888 394.699653 
L 225.22484 396.404522 
L 225.8608 397.397885 
L 227.13272 399.055131 
L 228.40464 401.229252 
L 229.67656 404.168851 
L 230.31252 404.822236 
L 230.94848 404.937834 
L 231.58444 403.778383 
L 232.2204 402.151633 
L 232.85636 399.61215 
L 233.49232 395.689198 
L 234.12828 389.482184 
L 235.4002 372.793487 
L 236.03616 408.030337 
L 236.03616 365.866461 
L 236.67212 416.678844 
L 236.67212 357.037786 
L 237.30808 395.32069 
L 237.30808 386.934797 
L 237.30808 411.336765 
L 237.94404 400.260911 
L 237.94404 387.431055 
L 237.94404 409.022326 
L 238.58 396.201177 
L 238.58 393.413797 
L 238.58 410.15669 
L 239.21596 346.65 
L 239.21596 417.903265 
L 239.85192 404.813366 
L 239.85192 360.926538 
L 240.48788 377.787938 
L 241.12384 388.593971 
L 241.7598 394.572676 
L 242.39576 397.553892 
L 243.03172 399.286917 
L 243.66768 399.888654 
L 244.30364 399.479767 
L 244.9396 399.24328 
L 245.57556 399.632843 
L 246.84748 401.389414 
L 247.48344 401.857852 
L 248.1194 401.246384 
L 248.75536 400.9015 
L 249.39132 400.131569 
L 250.02728 398.712993 
L 251.2992 393.516766 
L 251.93516 389.970328 
L 252.57112 389.600169 
L 252.57112 385.497882 
L 253.20708 386.407338 
L 253.20708 380.041738 
L 253.84304 383.253778 
L 253.84304 376.231386 
L 254.479 385.084204 
L 254.479 373.505049 
L 255.11496 369.856466 
L 257.6588 408.086574 
L 258.29476 413.474753 
L 258.93072 408.384489 
L 259.56668 397.034313 
L 260.20264 392.83173 
L 260.8386 397.29567 
L 262.11052 410.875481 
L 262.74648 410.870684 
L 264.0184 402.180727 
L 264.65436 418.149832 
L 264.65436 401.009639 
L 265.29032 420.709626 
L 265.29032 400.069576 
L 265.92628 396.991089 
L 266.56224 407.226714 
L 267.1982 403.05846 
L 267.83416 413.641183 
L 267.83416 400.733745 
L 268.47012 414.31535 
L 268.47012 400.431059 
L 269.10608 411.669197 
L 269.10608 400.470554 
L 269.74204 409.643449 
L 269.74204 409.038809 
L 269.74204 403.267829 
L 270.378 409.367252 
L 270.378 359.687919 
L 271.01396 413.801072 
L 271.01396 365.112106 
L 271.64992 381.895816 
L 271.64992 373.436249 
L 272.28588 381.359308 
L 273.5578 392.57844 
L 274.19376 396.271041 
L 274.82972 398.239036 
L 275.46568 398.640008 
L 276.10164 398.24655 
L 276.7376 398.156983 
L 278.00952 399.27709 
L 278.64548 399.9649 
L 279.28144 400.95379 
L 279.9174 401.650293 
L 280.55336 401.840059 
L 281.18932 400.932685 
L 283.0972 395.886016 
L 284.36912 392.385472 
L 285.00508 382.069044 
L 285.00508 390.099855 
L 285.64104 415.914361 
L 285.64104 387.759808 
L 286.277 388.789057 
L 286.91296 395.588057 
L 287.54892 406.285267 
L 291.36468 422.204276 
L 292.00064 422.160222 
L 292.6366 422.614555 
L 293.27256 399.794831 
L 293.90852 403.55483 
L 294.54448 410.642486 
L 295.18044 406.239013 
L 295.8164 390.944324 
L 296.45236 389.911621 
L 298.36024 382.966897 
L 298.9962 388.036462 
L 299.63216 394.637148 
L 299.63216 381.580617 
L 300.26812 395.83214 
L 300.26812 384.525859 
L 300.90408 393.791397 
L 300.90408 385.80933 
L 301.54004 397.729953 
L 301.54004 386.453548 
L 302.176 408.23444 
L 302.176 387.39735 
L 302.81196 389.32594 
L 303.44792 391.84904 
L 304.71984 395.645525 
L 305.3558 397.029103 
L 306.62772 398.771729 
L 307.26368 399.843614 
L 309.17156 404.152618 
L 309.80752 404.833232 
L 310.44348 404.894431 
L 311.07944 403.890584 
L 311.7154 402.145316 
L 312.35136 399.67221 
L 312.98732 396.421003 
L 314.25924 388.565991 
L 314.8952 385.017392 
L 315.53116 380.678784 
L 316.16712 375.488088 
L 316.80308 368.683389 
L 317.43904 357.554931 
L 318.075 348.985359 
L 323.16268 402.780587 
L 323.79864 416.96737 
L 324.4346 414.473566 
L 325.07056 409.629651 
L 326.34248 412.906035 
L 328.25036 425.496917 
L 332.06612 401.515989 
L 332.70208 423.661674 
L 332.70208 400.088462 
L 333.33804 425.091429 
L 333.33804 400.279035 
L 333.974 421.314972 
L 333.974 394.415838 
L 334.60996 421.210934 
L 334.60996 388.408302 
L 335.24592 420.277038 
L 335.24592 394.788136 
L 335.88188 400.177934 
L 336.51784 403.334158 
L 337.78976 405.169199 
L 338.42572 404.623799 
L 339.06168 404.413356 
L 339.69764 404.788004 
L 340.96956 405.24583 
L 342.24148 406.468958 
L 342.87744 406.760655 
L 343.5134 406.661027 
L 344.14936 406.418161 
L 344.78532 405.673484 
L 345.42128 403.481034 
L 346.6932 398.293951 
L 347.32916 398.079051 
L 347.96512 399.323796 
L 348.60108 423.403362 
L 348.60108 400.692757 
L 349.23704 421.624789 
L 349.23704 399.853979 
L 349.873 424.25831 
L 349.873 397.571311 
L 350.50896 426.436032 
L 350.50896 393.841902 
L 351.14492 427.56358 
L 351.14492 390.189911 
L 351.78088 429.449542 
L 351.78088 386.818232 
L 352.41684 430.05 
L 365.13604 421.359334 
L 365.772 387.499551 
L 366.40796 388.974807 
L 368.31584 394.461547 
L 368.9518 395.510184 
L 369.58776 396.282615 
L 370.22372 396.674804 
L 372.76756 403.382387 
L 373.40352 403.704452 
L 374.03948 403.489351 
L 374.67544 403.574616 
L 375.3114 402.965269 
L 376.58332 400.845312 
L 377.21928 399.481135 
L 377.85524 398.65449 
L 378.4912 397.238958 
L 379.12716 394.781764 
L 379.76312 391.301534 
L 380.39908 385.228519 
L 381.03504 408.03309 
L 381.671 402.945642 
L 381.671 406.438913 
L 382.30696 405.044108 
L 382.30696 407.554854 
L 382.94292 412.88319 
L 382.94292 407.68258 
L 383.57888 419.354156 
L 384.21484 419.277864 
L 384.8508 419.598498 
L 385.48676 420.358053 
L 386.12272 418.4108 
L 386.75868 415.542283 
L 387.39464 418.825611 
L 388.0306 415.640666 
L 389.30252 425.390225 
L 389.93848 429.046241 
L 390.57444 421.214855 
L 393.75424 424.470406 
L 396.29808 354.389203 
L 398.20596 374.810308 
L 399.47788 385.992163 
L 400.11384 390.668966 
L 401.38576 397.202676 
L 402.02172 399.092193 
L 402.65768 400.335227 
L 403.9296 401.548995 
L 404.56556 407.771403 
L 404.56556 401.895885 
L 405.20152 411.056799 
L 405.20152 402.174813 
L 405.83748 402.216195 
L 406.47344 402.014767 
L 407.74536 400.651076 
L 409.01728 398.503818 
L 409.65324 396.973196 
L 410.2892 394.53665 
L 410.92516 391.555193 
L 411.56112 379.556874 
L 411.56112 387.935429 
L 412.19708 396.589534 
L 412.19708 383.020028 
L 412.83304 400.718048 
L 412.83304 376.783696 
L 413.469 421.441039 
L 413.469 369.60779 
L 414.10496 425.358597 
L 414.10496 353.615266 
L 414.10496 363.621445 
L 414.74092 419.65574 
L 414.74092 398.95106 
L 415.37688 399.837563 
L 416.6488 403.635968 
L 417.28476 404.844521 
L 417.92072 404.855059 
L 418.55668 404.575367 
L 419.19264 404.79437 
L 419.8286 404.629584 
L 421.10052 405.856499 
L 422.37244 406.830491 
L 423.0084 406.785074 
L 423.64436 406.418047 
L 424.28032 405.813287 
L 424.91628 403.839879 
L 425.55224 400.767899 
L 426.1882 398.336026 
L 426.82416 396.917033 
L 427.46012 396.246432 
L 428.09608 423.603701 
L 428.09608 393.698947 
L 428.73204 420.265886 
L 428.73204 391.242716 
L 429.368 422.795053 
L 429.368 367.095525 
L 430.00396 425.336886 
L 430.00396 374.390367 
L 430.63992 425.157503 
L 430.63992 380.230641 
L 431.91184 390.667776 
L 432.5478 394.526775 
L 433.18376 397.574704 
L 433.81972 399.647899 
L 434.45568 400.559414 
L 435.09164 400.805685 
L 436.99952 400.514417 
L 438.27144 400.623084 
L 438.9074 400.764281 
L 439.54336 400.781516 
L 440.17932 400.281096 
L 440.81528 399.293512 
L 441.45124 397.922224 
L 442.72316 392.609879 
L 443.99508 385.277418 
L 444.63104 381.057939 
L 445.267 397.873881 
L 445.267 376.561274 
L 445.90296 392.772231 
L 445.90296 372.91466 
L 446.53892 389.969241 
L 446.53892 370.711042 
L 447.17488 389.738013 
L 447.81084 391.9207 
L 448.4468 393.248269 
L 450.99064 399.933613 
L 452.26256 403.382302 
L 452.89852 403.479023 
L 453.53448 403.446421 
L 454.17044 403.715007 
L 454.8064 403.023821 
L 456.07832 401.082546 
L 457.35024 398.607202 
L 457.9862 396.856395 
L 458.62216 394.29276 
L 459.25812 394.138211 
L 459.89408 395.106334 
L 460.53004 409.351258 
L 460.53004 362.581224 
L 461.166 404.22009 
L 461.166 371.368604 
L 461.80196 406.900997 
L 461.80196 377.353447 
L 463.07388 388.006199 
L 463.70984 392.231647 
L 464.3458 395.609864 
L 464.98176 398.16995 
L 465.61772 399.524435 
L 466.25368 399.99987 
L 467.5256 399.63624 
L 468.16156 399.680131 
L 469.43348 400.705263 
L 470.06944 401.332322 
L 470.7054 401.74876 
L 471.34136 401.75966 
L 471.97732 400.851098 
L 472.61328 398.447668 
L 473.24924 393.564799 
L 473.8852 385.530864 
L 475.15712 363.887935 
L 475.79308 357.472056 
L 475.79308 415.154906 
L 476.42904 405.063942 
L 476.42904 407.268824 
L 477.065 402.876269 
L 477.065 406.471616 
L 477.70096 402.273691 
L 477.70096 408.534557 
L 478.33692 356.268531 
L 478.33692 416.53729 
L 478.97288 365.91655 
L 480.2448 386.681418 
L 480.88076 393.300423 
L 481.51672 397.549829 
L 482.15268 399.913873 
L 482.78864 400.923846 
L 483.4246 401.547155 
L 484.06056 401.901927 
L 484.69652 410.938435 
L 484.69652 402.191806 
L 485.33248 402.211204 
L 485.96844 402.011723 
L 487.24036 400.677506 
L 488.51228 398.64646 
L 489.14824 396.993199 
L 489.7842 394.57467 
L 490.42016 391.523962 
L 491.05612 387.607073 
L 491.69208 382.124462 
L 492.32804 417.936115 
L 492.32804 374.780931 
L 492.964 417.385779 
L 492.964 366.39032 
L 493.59996 411.271842 
L 493.59996 359.34732 
L 494.23592 414.047622 
L 494.23592 352.53992 
L 494.87188 419.552334 
L 495.50784 421.843121 
L 496.1438 427.583889 
L 496.77976 423.452541 
L 497.41572 425.422951 
L 498.05168 421.15463 
L 498.68764 417.805121 
L 499.3236 417.021863 
L 499.95956 413.293011 
L 500.59552 408.70009 
L 506.31916 423.421982 
L 506.95512 419.860592 
L 507.59108 421.545383 
L 508.22704 418.468432 
L 508.22704 354.040527 
L 508.863 418.323887 
L 508.863 364.499879 
L 509.49896 418.108927 
L 509.49896 372.627155 
L 510.13492 417.068831 
L 510.13492 379.186797 
L 510.77088 385.239679 
L 511.40684 390.195009 
L 512.0428 394.243934 
L 512.67876 397.250393 
L 513.31472 399.312845 
L 513.95068 400.29896 
L 514.58664 400.733149 
L 517.13048 400.525978 
L 519.03836 400.79739 
L 519.67432 400.472555 
L 520.31028 399.515353 
L 520.94624 397.843818 
L 522.21816 392.323477 
L 522.85412 388.793199 
L 524.12604 379.724012 
L 525.39796 369.742996 
L 526.03392 366.859012 
L 539.38908 348.231234 
L 540.02504 359.563893 
L 541.29696 375.515497 
L 542.56888 387.352716 
L 543.20484 391.754232 
L 543.8408 395.244277 
L 544.47676 397.935098 
L 545.11272 399.182602 
L 545.74868 399.747985 
L 546.38464 399.761599 
L 547.0206 399.633142 
L 547.65656 399.709816 
L 548.92848 400.691603 
L 549.56444 401.328361 
L 550.2004 401.754639 
L 550.83636 401.80475 
L 551.47232 401.323646 
L 552.10828 400.104996 
L 552.74424 398.043336 
L 553.3802 395.152359 
L 554.65212 387.550893 
L 555.92404 377.215646 
L 556.56 371.34539 
L 556.56 371.34539 
" clip-path="url(#pdbaec035f5)" style="fill: none; stroke: #1f77b4; stroke-width: 2.25; stroke-linecap: round"/>
   </g>
   <g id="patch_13">
    <path d="M 79.59 434.22 
L 79.59 342.48 
" style="fill: none; stroke: #262626; stroke-width: 1.875; stroke-linejoin: miter; stroke-linecap: square"/>
   </g>
   <g id="patch_14">
    <path d="M 556.56 434.22 
L 556.56 342.48 
" style="fill: none; stroke: #262626; stroke-width: 1.875; stroke-linejoin: miter; stroke-linecap: square"/>
   </g>
   <g id="patch_15">
    <path d="M 79.59 434.22 
L 556.56 434.22 
" style="fill: none; stroke: #262626; stroke-width: 1.875; stroke-linejoin: miter; stroke-linecap: square"/>
   </g>
   <g id="patch_16">
    <path d="M 79.59 342.48 
L 556.56 342.48 
" style="fill: none; stroke: #262626; stroke-width: 1.875; stroke-linejoin: miter; stroke-linecap: square"/>
   </g>
  </g>
 </g>
 <defs>
  <clipPath id="pac3ee21371">
   <rect x="79.59" y="19.44" width="476.97" height="91.74"/>
  </clipPath>
  <clipPath id="pd3966e0830">
   <rect x="79.59" y="180.96" width="476.97" height="91.74"/>
  </clipPath>
  <clipPath id="pdbaec035f5">
   <rect x="79.59" y="342.48" width="476.97" height="91.74"/>
  </clipPath>
 </defs>
</svg>
